<svg width="219" height="55" viewBox="0 0 219 55" fill="none" xmlns="http://www.w3.org/2000/svg">
<rect x="0.5" y="0.5" width="218" height="54" fill="#F1F1F1" stroke="#383838"/>
<path d="M34.6875 27.7344C34.6875 28.0469 34.6719 28.3594 34.6406 28.6719C34.6094 28.9844 34.5625 29.2604 34.5 29.5C34.6354 29.5417 34.7656 29.5833 34.8906 29.625C35.0156 29.6562 35.1354 29.6927 35.25 29.7344C34.9583 30.2656 34.6094 30.75 34.2031 31.1875C34.6198 31.4375 35.0625 31.6823 35.5312 31.9219C36.0104 32.1615 36.4844 32.3958 36.9531 32.625C37.4323 32.8438 37.901 33.0469 38.3594 33.2344C38.8177 33.4323 39.2396 33.6042 39.625 33.75L38.5 34.8438C37.6979 34.3021 36.8854 33.7812 36.0625 33.2812C35.25 32.7812 34.4427 32.2865 33.6406 31.7969C33.276 32.151 32.8854 32.4896 32.4688 32.8125C32.0625 33.125 31.6406 33.4167 31.2031 33.6875C30.7656 33.9583 30.3177 34.2031 29.8594 34.4219C29.4115 34.6406 28.974 34.8333 28.5469 35L28.1719 34.5312C28.7656 34.2604 29.3177 33.9531 29.8281 33.6094C30.3385 33.276 30.8021 32.9271 31.2188 32.5625C31.6354 32.1979 32.0052 31.8281 32.3281 31.4531C32.6615 31.0781 32.9375 30.7135 33.1562 30.3594C33.1771 30.3177 33.1979 30.25 33.2188 30.1562C33.2396 30.0521 33.1979 29.974 33.0938 29.9219C32.9583 29.8594 32.8229 29.7917 32.6875 29.7188C32.5521 29.6354 32.3542 29.5365 32.0938 29.4219L32.5469 28.9531C32.651 28.974 32.7604 29 32.875 29.0312C32.9896 29.0625 33.1094 29.0938 33.2344 29.125C33.2135 28.9271 33.1979 28.724 33.1875 28.5156C33.1771 28.3073 33.1719 28.1198 33.1719 27.9531V27.6562C32.7552 27.6667 32.3438 27.6771 31.9375 27.6875C31.5312 27.6979 31.151 27.7135 30.7969 27.7344C30.4531 27.7448 30.1406 27.7552 29.8594 27.7656C29.5885 27.776 29.375 27.7865 29.2188 27.7969C28.8333 27.8177 28.4115 27.8542 27.9531 27.9062C27.4948 27.9479 27.0833 27.9948 26.7188 28.0469L26.1875 26.6562C26.6562 26.7188 27.1562 26.7708 27.6875 26.8125C28.2292 26.8438 28.7344 26.8698 29.2031 26.8906C29.4531 26.901 29.7865 26.9062 30.2031 26.9062C30.6198 26.9062 31.0729 26.9062 31.5625 26.9062C32.0625 26.8958 32.5781 26.8854 33.1094 26.875C33.651 26.8542 34.1667 26.8385 34.6562 26.8281C35.1458 26.8177 35.599 26.8073 36.0156 26.7969C36.4323 26.776 36.7656 26.7604 37.0156 26.75C37.7135 26.7188 38.4219 26.6719 39.1406 26.6094C39.8594 26.5365 40.5052 26.4635 41.0781 26.3906L40.875 27.6719C40.6667 27.6615 40.4219 27.651 40.1406 27.6406C39.8698 27.6302 39.5729 27.625 39.25 27.625C38.9271 27.6146 38.5938 27.6042 38.25 27.5938C37.9062 27.5833 37.5625 27.5781 37.2188 27.5781C36.9375 27.5781 36.5781 27.5833 36.1406 27.5938C35.7031 27.5938 35.2188 27.6042 34.6875 27.625V27.7344ZM34.1094 22.25C34.9635 22.6875 35.8802 23.1042 36.8594 23.5C37.849 23.8958 38.8385 24.2448 39.8281 24.5469L38.7031 25.6875C38.3385 25.4896 37.9427 25.276 37.5156 25.0469C37.099 24.8073 36.6667 24.5625 36.2188 24.3125C35.7708 24.0625 35.3177 23.8125 34.8594 23.5625C34.401 23.3125 33.9635 23.0729 33.5469 22.8438C32.7344 23.625 31.8281 24.2969 30.8281 24.8594C29.8281 25.4115 28.8333 25.8542 27.8438 26.1875L27.4219 25.6562C28.0469 25.4271 28.6406 25.151 29.2031 24.8281C29.776 24.5052 30.3073 24.1562 30.7969 23.7812C31.2969 23.4062 31.7448 23.0104 32.1406 22.5938C32.5365 22.1771 32.8698 21.75 33.1406 21.3125C33.2552 21.1146 33.2448 20.9635 33.1094 20.8594C33.0156 20.7865 32.8646 20.6927 32.6562 20.5781C32.4583 20.4635 32.2812 20.375 32.125 20.3125L32.5312 19.8281C32.7292 19.8906 32.9479 19.9583 33.1875 20.0312C33.4375 20.1042 33.6823 20.1823 33.9219 20.2656C34.1719 20.3385 34.4115 20.4167 34.6406 20.5C34.8802 20.5729 35.099 20.6458 35.2969 20.7188C35.1198 20.9896 34.9375 21.2552 34.75 21.5156C34.5625 21.7656 34.349 22.0104 34.1094 22.25ZM47.3594 26.8438C47.9115 27.2917 48.4948 27.7552 49.1094 28.2344C49.7344 28.7031 50.401 29.1562 51.1094 29.5938L49.9688 30.6094C49.4375 30.0469 48.9219 29.5104 48.4219 29C47.9219 28.4896 47.3958 27.9635 46.8438 27.4219C46.1562 28.1823 45.401 28.875 44.5781 29.5C43.7656 30.125 42.9167 30.6719 42.0312 31.1406L41.625 30.6562C42.3438 30.2083 43.0312 29.6979 43.6875 29.125C44.3542 28.5417 44.9583 27.9323 45.5 27.2969C46.0521 26.651 46.526 25.9896 46.9219 25.3125C47.3281 24.625 47.6302 23.9479 47.8281 23.2812C47.6719 23.2812 47.4792 23.2865 47.25 23.2969C47.0208 23.3073 46.7812 23.3177 46.5312 23.3281C46.2812 23.3385 46.0417 23.349 45.8125 23.3594C45.5833 23.3698 45.3958 23.375 45.25 23.375C45.1354 23.375 44.9844 23.3854 44.7969 23.4062C44.6094 23.4271 44.4062 23.4479 44.1875 23.4688C43.9792 23.4896 43.7656 23.5156 43.5469 23.5469C43.3281 23.5677 43.1302 23.5938 42.9531 23.625L42.1406 22.3438C42.276 22.3646 42.4479 22.3906 42.6562 22.4219C42.8646 22.4427 43.0833 22.4635 43.3125 22.4844C43.5417 22.5052 43.7656 22.526 43.9844 22.5469C44.2135 22.5573 44.4167 22.5625 44.5938 22.5625C44.9688 22.5625 45.3698 22.5573 45.7969 22.5469C46.2344 22.5365 46.6615 22.5156 47.0781 22.4844C47.5052 22.4531 47.9115 22.4115 48.2969 22.3594C48.6823 22.3073 49.0208 22.25 49.3125 22.1875L49.8125 22.6406C49.5417 23.4115 49.1979 24.1458 48.7812 24.8438C48.375 25.5417 47.901 26.2083 47.3594 26.8438ZM53.2188 30.3125C53.2188 30.6354 53.2135 31.0104 53.2031 31.4375C53.1927 31.8542 53.1771 32.276 53.1562 32.7031C53.1354 33.1198 53.1094 33.5156 53.0781 33.8906C53.0469 34.276 53.0104 34.5833 52.9688 34.8125L51.8906 34.9531C51.8698 34.7865 51.849 34.5625 51.8281 34.2812C51.8177 34 51.8021 33.6979 51.7812 33.375C51.7708 33.0625 51.7604 32.7396 51.75 32.4062C51.75 32.0625 51.75 31.7396 51.75 31.4375V21.625C51.75 21.3021 51.599 21.0417 51.2969 20.8438C51.0052 20.6354 50.5156 20.4479 49.8281 20.2812L50.0625 19.7031C50.3229 19.7344 50.6042 19.776 50.9062 19.8281C51.2188 19.8698 51.526 19.9219 51.8281 19.9844C52.1302 20.0365 52.4167 20.0885 52.6875 20.1406C52.9583 20.1927 53.1927 20.2344 53.3906 20.2656C53.3698 20.3594 53.349 20.474 53.3281 20.6094C53.3073 20.7448 53.2865 20.8854 53.2656 21.0312C53.2552 21.1667 53.2448 21.2917 53.2344 21.4062C53.224 21.5208 53.2188 21.6042 53.2188 21.6562V26.2031C53.4479 26.1927 53.6927 26.1771 53.9531 26.1562C54.224 26.125 54.4948 26.0938 54.7656 26.0625C55.0469 26.0312 55.3229 26 55.5938 25.9688C55.8646 25.9271 56.1198 25.8802 56.3594 25.8281L56.2188 27.0938C56.0312 27.0833 55.8125 27.0781 55.5625 27.0781C55.3125 27.0781 55.0469 27.0781 54.7656 27.0781C54.4948 27.0781 54.224 27.0781 53.9531 27.0781C53.6823 27.0781 53.4375 27.0781 53.2188 27.0781V30.3125ZM70.0625 24.5625C70.7917 24.7604 71.5833 24.9531 72.4375 25.1406C73.3021 25.3177 74.1406 25.4531 74.9531 25.5469L74.0312 26.6406C73.7604 26.5469 73.4271 26.4323 73.0312 26.2969C72.6354 26.1615 72.2135 26.0208 71.7656 25.875C71.3281 25.7292 70.8802 25.5833 70.4219 25.4375C69.974 25.2812 69.5573 25.1458 69.1719 25.0312C68.2344 25.5 67.2656 25.901 66.2656 26.2344C65.2656 26.5677 64.2552 26.8333 63.2344 27.0312L62.8438 26.5156C63.6146 26.3385 64.3646 26.1198 65.0938 25.8594C65.8229 25.599 66.5156 25.3073 67.1719 24.9844C67.8281 24.6615 68.4375 24.3229 69 23.9688C69.5729 23.6042 70.0833 23.2344 70.5312 22.8594C69.9167 22.8594 69.3125 22.8698 68.7188 22.8906C68.125 22.9115 67.5625 22.9427 67.0312 22.9844C66.9167 22.9948 66.7656 23.0104 66.5781 23.0312C66.3906 23.0521 66.1875 23.0781 65.9688 23.1094C65.75 23.1302 65.526 23.1562 65.2969 23.1875C65.0781 23.2188 64.8854 23.25 64.7188 23.2812L63.8906 22.0312C64.026 22.0521 64.1979 22.0781 64.4062 22.1094C64.625 22.1302 64.849 22.151 65.0781 22.1719C65.3177 22.1927 65.5521 22.2135 65.7812 22.2344C66.0104 22.2448 66.2135 22.25 66.3906 22.25C66.7656 22.25 67.2188 22.2448 67.75 22.2344C68.2812 22.224 68.8333 22.2031 69.4062 22.1719C69.9896 22.1406 70.5625 22.099 71.125 22.0469C71.6979 21.9844 72.2083 21.9115 72.6562 21.8281L73.1562 22.375C72.6979 22.7917 72.2083 23.1823 71.6875 23.5469C71.1771 23.901 70.6354 24.2396 70.0625 24.5625ZM70.8281 21.125C70.651 21.125 70.4427 21.125 70.2031 21.125C69.974 21.125 69.7396 21.1302 69.5 21.1406C69.2708 21.1406 69.0573 21.1458 68.8594 21.1562C68.6615 21.1562 68.5052 21.1562 68.3906 21.1562C68.3177 21.1562 68.1979 21.1615 68.0312 21.1719C67.875 21.1719 67.7031 21.1823 67.5156 21.2031C67.3385 21.2135 67.1562 21.2292 66.9688 21.25C66.7917 21.2604 66.6458 21.276 66.5312 21.2969L65.8594 20.1094C65.9948 20.1406 66.1719 20.1719 66.3906 20.2031C66.6094 20.224 66.8281 20.25 67.0469 20.2812C67.276 20.3021 67.4896 20.3229 67.6875 20.3438C67.8854 20.3542 68.0417 20.3594 68.1562 20.3594C68.2812 20.3594 68.4583 20.3542 68.6875 20.3438C68.9167 20.3333 69.1719 20.3229 69.4531 20.3125C69.7344 20.2917 70.0208 20.2708 70.3125 20.25C70.6042 20.2188 70.875 20.1875 71.125 20.1562L70.8281 21.125ZM69.8906 31.25C69.8906 31.5312 69.8802 31.8281 69.8594 32.1406C69.849 32.4531 69.8333 32.7656 69.8125 33.0781C69.7917 33.3906 69.7656 33.6875 69.7344 33.9688C69.7031 34.2604 69.6667 34.5156 69.625 34.7344L68.5156 34.9219C68.4948 34.7448 68.474 34.5208 68.4531 34.25C68.4427 33.9896 68.4323 33.7135 68.4219 33.4219C68.4219 33.1406 68.4219 32.8542 68.4219 32.5625C68.4219 32.2708 68.4219 32.0104 68.4219 31.7812V28.875C68.0156 28.8854 67.6146 28.8958 67.2188 28.9062C66.8229 28.9167 66.4531 28.9271 66.1094 28.9375C65.7656 28.9479 65.4583 28.9635 65.1875 28.9844C64.9167 28.9948 64.6979 29.0052 64.5312 29.0156C64.1354 29.0365 63.7083 29.0677 63.25 29.1094C62.8021 29.151 62.3958 29.1979 62.0312 29.25L61.5 27.8906C61.9688 27.9531 62.4688 28 63 28.0312C63.5417 28.0625 64.0469 28.0885 64.5156 28.1094C64.776 28.1198 65.1042 28.125 65.5 28.125C65.9062 28.125 66.349 28.125 66.8281 28.125C67.3073 28.1146 67.8021 28.1042 68.3125 28.0938C68.8333 28.0833 69.3281 28.0729 69.7969 28.0625C70.276 28.0417 70.7135 28.026 71.1094 28.0156C71.5156 27.9948 71.8438 27.9792 72.0938 27.9688C72.7917 27.9375 73.5 27.8906 74.2188 27.8281C74.9479 27.7656 75.5938 27.6927 76.1562 27.6094L75.9688 28.8906C75.7604 28.8802 75.5156 28.8698 75.2344 28.8594C74.9635 28.849 74.6667 28.8438 74.3438 28.8438C74.0208 28.8333 73.6875 28.8229 73.3438 28.8125C73 28.8021 72.6562 28.7969 72.3125 28.7969C72.0312 28.7969 71.6823 28.8021 71.2656 28.8125C70.849 28.8125 70.3906 28.8229 69.8906 28.8438V31.25ZM85.2656 24.0625C85.9948 24.2292 86.7865 24.375 87.6406 24.5C88.4948 24.625 89.3281 24.7292 90.1406 24.8125L89.2188 25.9062C88.9375 25.8125 88.5938 25.7083 88.1875 25.5938C87.7917 25.4792 87.3698 25.3594 86.9219 25.2344C86.474 25.1094 86.0208 24.9844 85.5625 24.8594C85.1146 24.7344 84.6979 24.6198 84.3125 24.5156C83.375 24.9115 82.4062 25.25 81.4062 25.5312C80.4167 25.8125 79.4167 26.0521 78.4062 26.25L78.0312 25.7031C78.7917 25.5469 79.5365 25.3594 80.2656 25.1406C80.9948 24.9219 81.6823 24.6771 82.3281 24.4062C82.9844 24.125 83.5938 23.8229 84.1562 23.5C84.7292 23.1771 85.2396 22.8385 85.6875 22.4844C85.0729 22.4844 84.474 22.4948 83.8906 22.5156C83.3177 22.5365 82.7656 22.5677 82.2344 22.6094C82.1198 22.6198 81.9688 22.6354 81.7812 22.6562C81.5938 22.6771 81.3906 22.7031 81.1719 22.7344C80.9531 22.7656 80.7292 22.7969 80.5 22.8281C80.2812 22.8594 80.0885 22.8906 79.9219 22.9219L79.0938 21.6719C79.2292 21.6927 79.401 21.7135 79.6094 21.7344C79.8281 21.7552 80.0521 21.776 80.2812 21.7969C80.5208 21.8177 80.7552 21.8385 80.9844 21.8594C81.2135 21.8698 81.4167 21.875 81.5938 21.875C81.9688 21.875 82.4219 21.8698 82.9531 21.8594C83.4844 21.849 84.0365 21.8281 84.6094 21.7969C85.1927 21.7656 85.7656 21.7292 86.3281 21.6875C86.901 21.6354 87.4115 21.5677 87.8594 21.4844L88.3594 22.0156C87.474 22.8073 86.4427 23.4896 85.2656 24.0625ZM86.0312 20.9688C85.8542 20.9688 85.6458 20.9688 85.4062 20.9688C85.1771 20.9688 84.9427 20.974 84.7031 20.9844C84.474 20.9844 84.2604 20.9896 84.0625 21C83.8646 21 83.7083 21 83.5938 21C83.5208 21 83.401 21.0052 83.2344 21.0156C83.0781 21.0156 82.9062 21.026 82.7188 21.0469C82.5417 21.0573 82.3594 21.0729 82.1719 21.0938C81.9948 21.1042 81.849 21.1198 81.7344 21.1406L81.0625 19.9375C81.1979 19.9688 81.375 20.0052 81.5938 20.0469C81.8125 20.0781 82.0312 20.1042 82.25 20.125C82.4792 20.1458 82.6927 20.1667 82.8906 20.1875C83.0885 20.1979 83.2448 20.2031 83.3594 20.2031C83.4844 20.2031 83.6615 20.2031 83.8906 20.2031C84.1198 20.1927 84.375 20.1823 84.6562 20.1719C84.9375 20.151 85.224 20.1302 85.5156 20.1094C85.8073 20.0781 86.0781 20.0469 86.3281 20.0156L86.0312 20.9688ZM85.1406 27.5625C85.1406 27.8333 85.1302 28.1042 85.1094 28.375C85.0885 28.6354 85.0573 28.875 85.0156 29.0938C85.6719 29.0729 86.3177 29.0521 86.9531 29.0312C87.599 29.0104 88.1719 28.974 88.6719 28.9219C88.6406 29.0781 88.6094 29.224 88.5781 29.3594C88.5573 29.474 88.5312 29.599 88.5 29.7344C88.4792 29.8698 88.4583 29.9844 88.4375 30.0781L88.2656 31.0625C88.349 31.0521 88.4167 31.0469 88.4688 31.0469C88.5312 31.0469 88.5885 31.0417 88.6406 31.0312L88.5312 32.0156C87.9479 31.9844 87.3229 31.9688 86.6562 31.9688C85.9896 31.9583 85.3438 31.9583 84.7188 31.9688C84.1042 31.9792 83.5417 31.9948 83.0312 32.0156C82.5208 32.0365 82.1354 32.0521 81.875 32.0625C81.8646 32.1562 81.8594 32.2448 81.8594 32.3281C81.8594 32.4115 81.8594 32.4948 81.8594 32.5781V33.2344C81.8594 33.3906 81.8802 33.4844 81.9219 33.5156C81.974 33.5573 82.0885 33.5833 82.2656 33.5938C82.5156 33.6042 82.8229 33.6042 83.1875 33.5938C83.5625 33.5938 83.9635 33.5833 84.3906 33.5625C84.8177 33.5417 85.2604 33.5156 85.7188 33.4844C86.1875 33.4635 86.6406 33.4323 87.0781 33.3906C87.526 33.3594 87.9479 33.3229 88.3438 33.2812C88.7396 33.2396 89.0833 33.1927 89.375 33.1406L89.1094 34.3906C88.5469 34.3698 87.9115 34.3594 87.2031 34.3594C86.4948 34.3594 85.7865 34.3594 85.0781 34.3594C84.3698 34.3698 83.6875 34.3802 83.0312 34.3906C82.375 34.4115 81.8125 34.4323 81.3438 34.4531C80.9792 34.474 80.724 34.401 80.5781 34.2344C80.4427 34.0677 80.375 33.849 80.375 33.5781V32.8125C80.375 32.625 80.3594 32.474 80.3281 32.3594C80.3073 32.2344 80.2552 32.1302 80.1719 32.0469C80.099 31.9635 79.9844 31.8906 79.8281 31.8281C79.6719 31.7656 79.4688 31.6927 79.2188 31.6094L79.4844 31.125C80.0156 31.1875 80.5938 31.2292 81.2188 31.25C81.8542 31.2708 82.5 31.2812 83.1562 31.2812C83.8125 31.2812 84.4583 31.2708 85.0938 31.25C85.7292 31.2292 86.3229 31.2031 86.875 31.1719L86.9219 29.7656C86.6719 29.7552 86.349 29.75 85.9531 29.75C85.5573 29.75 85.1406 29.7604 84.7031 29.7812C84.276 29.7917 83.8594 29.8073 83.4531 29.8281C83.0469 29.8385 82.7083 29.8542 82.4375 29.875C82.3333 29.8854 82.1875 29.8958 82 29.9062C81.8229 29.9167 81.625 29.9375 81.4062 29.9688C81.1979 29.9896 80.9792 30.0156 80.75 30.0469C80.5312 30.0677 80.3281 30.099 80.1406 30.1406L79.4219 28.9062C79.5365 28.9271 79.6927 28.9531 79.8906 28.9844C80.0885 29.0052 80.3021 29.026 80.5312 29.0469C80.7604 29.0677 80.9844 29.0885 81.2031 29.1094C81.4219 29.1198 81.6146 29.125 81.7812 29.125H83.6406C83.6406 28.8854 83.6354 28.6354 83.625 28.375C83.625 28.1146 83.625 27.8802 83.625 27.6719V27.5938C83.1979 27.6042 82.7812 27.6146 82.375 27.625C81.9688 27.6354 81.5885 27.6458 81.2344 27.6562C80.8802 27.6667 80.5625 27.6823 80.2812 27.7031C80.0104 27.7135 79.7917 27.724 79.625 27.7344C79.2396 27.7552 78.8177 27.7865 78.3594 27.8281C77.901 27.8698 77.4896 27.9167 77.125 27.9688L76.5938 26.5938C77.0625 26.6562 77.5625 26.7083 78.0938 26.75C78.6354 26.7812 79.1406 26.8073 79.6094 26.8281C79.8594 26.8385 80.1927 26.8438 80.6094 26.8438C81.026 26.8438 81.4792 26.8438 81.9688 26.8438C82.4688 26.8333 82.9844 26.8229 83.5156 26.8125C84.0573 26.7917 84.5729 26.776 85.0625 26.7656C85.5521 26.7552 86.0052 26.7448 86.4219 26.7344C86.8385 26.7135 87.1719 26.6979 87.4219 26.6875C88.1198 26.6458 88.8281 26.5938 89.5469 26.5312C90.2656 26.4688 90.9115 26.401 91.4844 26.3281L91.2812 27.6094C91.0729 27.599 90.8281 27.5885 90.5469 27.5781C90.276 27.5677 89.9792 27.5625 89.6562 27.5625C89.3333 27.5521 89 27.5417 88.6562 27.5312C88.3125 27.5208 87.9688 27.5156 87.625 27.5156C87.3438 27.5156 86.9896 27.5208 86.5625 27.5312C86.1354 27.5312 85.6615 27.5417 85.1406 27.5625ZM103.766 30.3125C103.766 30.6354 103.755 31.0104 103.734 31.4375C103.724 31.8542 103.708 32.276 103.688 32.7031C103.667 33.1198 103.641 33.5156 103.609 33.8906C103.578 34.276 103.547 34.5833 103.516 34.8125L102.438 34.9531C102.417 34.7865 102.396 34.5625 102.375 34.2812C102.365 34 102.349 33.6979 102.328 33.375C102.318 33.0625 102.307 32.7396 102.297 32.4062C102.297 32.0625 102.297 31.7396 102.297 31.4375V21.625C102.297 21.3021 102.146 21.0417 101.844 20.8438C101.552 20.6354 101.062 20.4479 100.375 20.2812L100.625 19.7031C100.885 19.7344 101.167 19.776 101.469 19.8281C101.771 19.8698 102.073 19.9219 102.375 19.9844C102.677 20.0365 102.964 20.0885 103.234 20.1406C103.516 20.1927 103.755 20.2344 103.953 20.2656C103.932 20.3594 103.906 20.474 103.875 20.6094C103.854 20.7448 103.833 20.8854 103.812 21.0312C103.802 21.1667 103.792 21.2917 103.781 21.4062C103.771 21.5208 103.766 21.6042 103.766 21.6562V26.6875C104.234 26.6458 104.76 26.599 105.344 26.5469C105.927 26.4844 106.453 26.4115 106.922 26.3281L106.75 27.5938C106.573 27.5833 106.359 27.5781 106.109 27.5781C105.859 27.5781 105.599 27.5781 105.328 27.5781C105.057 27.5781 104.786 27.5781 104.516 27.5781C104.245 27.5781 103.995 27.5781 103.766 27.5781V30.3125ZM101.266 24.3281C101.026 24.3281 100.734 24.3281 100.391 24.3281C100.047 24.3281 99.6719 24.3333 99.2656 24.3438C98.8698 24.3542 98.4583 24.3646 98.0312 24.375C97.6042 24.3854 97.1927 24.3958 96.7969 24.4062C96.401 24.4167 96.0365 24.4271 95.7031 24.4375C95.3698 24.4479 95.0938 24.4583 94.875 24.4688C94.75 24.4792 94.5833 24.4948 94.375 24.5156C94.1771 24.526 93.9688 24.5417 93.75 24.5625C93.5312 24.5833 93.3229 24.6094 93.125 24.6406C92.9271 24.6615 92.7656 24.6823 92.6406 24.7031L92.0469 23.4062C92.1823 23.4375 92.3542 23.4688 92.5625 23.5C92.7708 23.5208 92.9844 23.5417 93.2031 23.5625C93.4219 23.5833 93.6354 23.6042 93.8438 23.625C94.0521 23.6354 94.2292 23.6406 94.375 23.6406C94.7292 23.6406 95.1979 23.6354 95.7812 23.625C96.375 23.6042 97.0052 23.5781 97.6719 23.5469C98.349 23.5052 99.0208 23.4583 99.6875 23.4062C100.365 23.3438 100.958 23.2656 101.469 23.1719L101.266 24.3281ZM100.328 28.1406C100.328 28.5156 100.24 28.875 100.062 29.2188C99.8854 29.5521 99.6406 29.849 99.3281 30.1094C99.026 30.3594 98.6615 30.5573 98.2344 30.7031C97.8177 30.849 97.3698 30.9219 96.8906 30.9219C96.401 30.9219 95.9427 30.849 95.5156 30.7031C95.099 30.5469 94.7344 30.3438 94.4219 30.0938C94.1198 29.8438 93.8802 29.5521 93.7031 29.2188C93.526 28.875 93.4375 28.5156 93.4375 28.1406C93.4375 27.724 93.526 27.3438 93.7031 27C93.8802 26.6562 94.1198 26.3646 94.4219 26.125C94.7344 25.875 95.099 25.6823 95.5156 25.5469C95.9427 25.4115 96.401 25.3438 96.8906 25.3438C97.401 25.3438 97.8646 25.4219 98.2812 25.5781C98.7083 25.724 99.0729 25.9271 99.375 26.1875C99.6771 26.4375 99.9115 26.7344 100.078 27.0781C100.245 27.4115 100.328 27.7656 100.328 28.1406ZM94.9844 28.0625C94.9844 28.3333 95.0312 28.5885 95.125 28.8281C95.2292 29.0677 95.3698 29.2812 95.5469 29.4688C95.724 29.6458 95.9271 29.7917 96.1562 29.9062C96.3958 30.0104 96.651 30.0625 96.9219 30.0625C97.1719 30.0625 97.4115 30.0104 97.6406 29.9062C97.8698 29.8021 98.0677 29.6615 98.2344 29.4844C98.4115 29.3073 98.5521 29.099 98.6562 28.8594C98.7604 28.6094 98.8125 28.3438 98.8125 28.0625C98.8125 27.8021 98.7656 27.5573 98.6719 27.3281C98.5781 27.0885 98.4479 26.8802 98.2812 26.7031C98.1146 26.526 97.9115 26.3854 97.6719 26.2812C97.4427 26.1667 97.1927 26.1094 96.9219 26.1094C96.3698 26.1094 95.9062 26.2917 95.5312 26.6562C95.1667 27.0104 94.9844 27.4792 94.9844 28.0625ZM98.9531 22.25C98.776 22.25 98.5833 22.25 98.375 22.25C98.1667 22.25 97.9583 22.2552 97.75 22.2656C97.5417 22.2656 97.3385 22.2708 97.1406 22.2812C96.9531 22.2812 96.7917 22.2812 96.6562 22.2812C96.5833 22.2812 96.4792 22.2865 96.3438 22.2969C96.2083 22.2969 96.0573 22.3073 95.8906 22.3281C95.724 22.3385 95.5573 22.3542 95.3906 22.375C95.224 22.3854 95.0729 22.401 94.9375 22.4219L94.2969 21.2188C94.4219 21.25 94.5781 21.2812 94.7656 21.3125C94.9531 21.3438 95.1458 21.375 95.3438 21.4062C95.5521 21.4375 95.75 21.4635 95.9375 21.4844C96.1354 21.4948 96.3021 21.5 96.4375 21.5C96.5625 21.5 96.7344 21.4948 96.9531 21.4844C97.1719 21.474 97.4062 21.4583 97.6562 21.4375C97.9167 21.4062 98.1771 21.375 98.4375 21.3438C98.7083 21.3125 98.9635 21.2812 99.2031 21.25L98.9531 22.25ZM115.969 22.8281C115.667 23.7344 115.25 24.6198 114.719 25.4844C114.198 26.3385 113.599 27.1406 112.922 27.8906C112.255 28.6302 111.526 29.3073 110.734 29.9219C109.943 30.526 109.135 31.0365 108.312 31.4531L107.844 30.9844C108.594 30.5469 109.302 30.0312 109.969 29.4375C110.635 28.8333 111.234 28.1979 111.766 27.5312C112.307 26.8646 112.771 26.1823 113.156 25.4844C113.542 24.7865 113.828 24.1146 114.016 23.4688C113.859 23.4688 113.656 23.474 113.406 23.4844C113.167 23.4948 112.911 23.5052 112.641 23.5156C112.38 23.5156 112.125 23.5208 111.875 23.5312C111.625 23.5417 111.427 23.5469 111.281 23.5469C111.167 23.5469 111.016 23.5573 110.828 23.5781C110.641 23.599 110.438 23.6198 110.219 23.6406C110 23.6615 109.781 23.6875 109.562 23.7188C109.344 23.7396 109.151 23.7656 108.984 23.7969L108.188 22.5469C108.323 22.5677 108.495 22.5938 108.703 22.625C108.911 22.6458 109.13 22.6667 109.359 22.6875C109.589 22.7083 109.812 22.724 110.031 22.7344C110.26 22.7448 110.464 22.75 110.641 22.75C111.016 22.75 111.422 22.7448 111.859 22.7344C112.307 22.7135 112.75 22.6875 113.188 22.6562C113.625 22.625 114.042 22.5833 114.438 22.5312C114.844 22.4792 115.198 22.4219 115.5 22.3594L115.969 22.8281ZM116.438 19.7031C116.688 19.7344 116.964 19.776 117.266 19.8281C117.568 19.8698 117.87 19.9219 118.172 19.9844C118.474 20.0365 118.76 20.0885 119.031 20.1406C119.312 20.1927 119.557 20.2344 119.766 20.2656C119.745 20.3594 119.724 20.474 119.703 20.6094C119.682 20.7448 119.661 20.8854 119.641 21.0312C119.63 21.1667 119.62 21.2917 119.609 21.4062C119.599 21.5208 119.594 21.6042 119.594 21.6562V30.3125C119.594 30.6354 119.583 31.0104 119.562 31.4375C119.552 31.8542 119.531 32.276 119.5 32.7031C119.479 33.1198 119.453 33.5156 119.422 33.8906C119.391 34.276 119.354 34.5833 119.312 34.8125L118.266 34.9531C118.245 34.7865 118.224 34.5625 118.203 34.2812C118.193 34 118.177 33.6979 118.156 33.375C118.146 33.0625 118.135 32.7396 118.125 32.4062C118.125 32.0625 118.125 31.7396 118.125 31.4375V21.625C118.125 21.3021 117.969 21.0417 117.656 20.8438C117.354 20.6354 116.859 20.4479 116.172 20.2812L116.438 19.7031Z" fill="#383838"/>
<line x1="185.673" y1="20" x2="192.695" y2="27.022" stroke="#383838" stroke-linecap="round" stroke-linejoin="round"/>
<line x1="192.695" y1="27.8297" x2="185.673" y2="34.8516" stroke="#383838" stroke-linecap="round" stroke-linejoin="round"/>
<line x1="173" y1="27.3347" x2="192.943" y2="27.3347" stroke="#383838"/>
</svg>
