<svg width="219" height="55" viewBox="0 0 219 55" fill="none" xmlns="http://www.w3.org/2000/svg">
<rect x="0.5" y="0.5" width="218" height="54" fill="#F1F1F1" stroke="#383838"/>
<path d="M36.5156 25.5156C36.776 25.5052 37.0312 25.4948 37.2812 25.4844C37.5417 25.474 37.8073 25.4531 38.0781 25.4219V21.625C38.0781 21.4688 38.0521 21.3281 38 21.2031C37.9479 21.0677 37.8542 20.9479 37.7188 20.8438C37.5938 20.7292 37.4219 20.6302 37.2031 20.5469C36.9844 20.4531 36.7083 20.3646 36.375 20.2812L36.6094 19.7031C36.8594 19.7344 37.125 19.776 37.4062 19.8281C37.6875 19.8802 37.9635 19.9323 38.2344 19.9844C38.5156 20.0365 38.7812 20.0885 39.0312 20.1406C39.2917 20.1927 39.5208 20.2396 39.7188 20.2812C39.6979 20.375 39.6771 20.4896 39.6562 20.625C39.6354 20.7604 39.6146 20.8958 39.5938 21.0312C39.5833 21.1667 39.5729 21.2917 39.5625 21.4062C39.5521 21.5208 39.5469 21.6042 39.5469 21.6562V26.2031C39.5469 26.849 39.5208 27.4635 39.4688 28.0469C39.4167 28.6302 39.3385 29.1458 39.2344 29.5938L38.1562 29.6875C38.1354 29.3438 38.1146 28.9531 38.0938 28.5156C38.0833 28.0781 38.0781 27.6771 38.0781 27.3125V26.3125C37.5573 26.3333 37.0312 26.3646 36.5 26.4062C36.4792 26.8542 36.4427 27.2865 36.3906 27.7031C36.349 28.1198 36.2865 28.4375 36.2031 28.6562L35.1875 28.8125C35.1771 28.7188 35.1667 28.599 35.1562 28.4531C35.1458 28.3073 35.1354 28.151 35.125 27.9844C35.1146 27.8073 35.1042 27.625 35.0938 27.4375C35.0938 27.2396 35.0938 27.0521 35.0938 26.875V22.25C35.0938 22.0938 35.0677 21.9531 35.0156 21.8281C34.974 21.7031 34.8958 21.5885 34.7812 21.4844C34.6667 21.3802 34.5052 21.2865 34.2969 21.2031C34.0885 21.1198 33.8229 21.0365 33.5 20.9531L33.7812 20.3906C34.2917 20.4531 34.8021 20.5365 35.3125 20.6406C35.8333 20.7344 36.2917 20.8333 36.6875 20.9375C36.6667 21.0312 36.6458 21.1458 36.625 21.2812C36.6042 21.4167 36.5833 21.5521 36.5625 21.6875C36.5521 21.8229 36.5417 21.9479 36.5312 22.0625C36.5208 22.1771 36.5156 22.2604 36.5156 22.3125V25.5156ZM34.6562 23.7656C34.3125 23.7656 33.9062 23.7708 33.4375 23.7812C32.9792 23.7812 32.5052 23.7917 32.0156 23.8125C31.5365 23.8229 31.0677 23.8385 30.6094 23.8594C30.1615 23.8802 29.776 23.8958 29.4531 23.9062C29.3281 23.9167 29.1667 23.9323 28.9688 23.9531C28.7812 23.9635 28.5833 23.9844 28.375 24.0156C28.1667 24.0365 27.9635 24.0573 27.7656 24.0781C27.5781 24.099 27.4219 24.1198 27.2969 24.1406L26.7188 22.875C26.8542 22.9062 27.0208 22.9375 27.2188 22.9688C27.4271 22.9896 27.6354 23.0104 27.8438 23.0312C28.0625 23.0521 28.2708 23.0729 28.4688 23.0938C28.6771 23.1042 28.849 23.1094 28.9844 23.1094C29.3281 23.1094 29.7344 23.1042 30.2031 23.0938C30.6719 23.0729 31.1667 23.0469 31.6875 23.0156C32.2188 22.974 32.7552 22.9219 33.2969 22.8594C33.8385 22.7969 34.3542 22.7188 34.8438 22.625L34.6562 23.7656ZM33.0938 22.1406C32.7396 22.1302 32.3542 22.1354 31.9375 22.1562C31.5312 22.1667 31.1875 22.1719 30.9062 22.1719C30.8333 22.1719 30.7292 22.1771 30.5938 22.1875C30.4688 22.1875 30.3281 22.1979 30.1719 22.2188C30.026 22.2292 29.8698 22.2448 29.7031 22.2656C29.5469 22.276 29.4062 22.2917 29.2812 22.3125L28.6406 21.1406C28.7656 21.1719 28.9167 21.2031 29.0938 21.2344C29.2812 21.2656 29.474 21.2969 29.6719 21.3281C29.8698 21.349 30.0573 21.3698 30.2344 21.3906C30.4219 21.401 30.5781 21.4062 30.7031 21.4062C30.8281 21.4062 30.9896 21.401 31.1875 21.3906C31.3958 21.3698 31.6198 21.349 31.8594 21.3281C32.099 21.3073 32.3438 21.2812 32.5938 21.25C32.8438 21.2188 33.0833 21.1875 33.3125 21.1562L33.0938 22.1406ZM34.3438 26.8281C34.3438 27.1615 34.2656 27.474 34.1094 27.7656C33.9531 28.0573 33.7344 28.3125 33.4531 28.5312C33.1823 28.75 32.8594 28.9219 32.4844 29.0469C32.1094 29.1719 31.7031 29.2344 31.2656 29.2344C30.8281 29.2344 30.4219 29.1719 30.0469 29.0469C29.6719 28.9219 29.3438 28.75 29.0625 28.5312C28.7917 28.3125 28.5781 28.0573 28.4219 27.7656C28.2656 27.474 28.1875 27.1615 28.1875 26.8281C28.1875 26.4844 28.2656 26.1667 28.4219 25.875C28.5781 25.5729 28.7917 25.3125 29.0625 25.0938C29.3438 24.875 29.6719 24.7083 30.0469 24.5938C30.4219 24.4688 30.8281 24.4062 31.2656 24.4062C31.7344 24.4062 32.1562 24.474 32.5312 24.6094C32.9062 24.7448 33.2292 24.9271 33.5 25.1562C33.7708 25.375 33.9792 25.6302 34.125 25.9219C34.2708 26.2135 34.3438 26.5156 34.3438 26.8281ZM29.7031 26.7656C29.7031 26.9948 29.7396 27.2135 29.8125 27.4219C29.8958 27.6198 30.0052 27.7969 30.1406 27.9531C30.2865 28.099 30.4531 28.2188 30.6406 28.3125C30.8385 28.3958 31.0469 28.4375 31.2656 28.4375C31.4844 28.4375 31.6875 28.3958 31.875 28.3125C32.0625 28.2292 32.2292 28.1146 32.375 27.9688C32.5208 27.8125 32.6354 27.6354 32.7188 27.4375C32.8021 27.2292 32.8438 27.0052 32.8438 26.7656C32.8438 26.5365 32.8021 26.3229 32.7188 26.125C32.6458 25.9167 32.5365 25.7344 32.3906 25.5781C32.2552 25.4219 32.0885 25.3021 31.8906 25.2188C31.7031 25.125 31.4948 25.0781 31.2656 25.0781C31.0469 25.0781 30.8385 25.1198 30.6406 25.2031C30.4531 25.2865 30.2865 25.4062 30.1406 25.5625C30.0052 25.7083 29.8958 25.8854 29.8125 26.0938C29.7396 26.3021 29.7031 26.526 29.7031 26.7656ZM36.4375 29.7812C36.8333 29.8333 37.1927 29.9323 37.5156 30.0781C37.849 30.224 38.1354 30.4062 38.375 30.625C38.6146 30.8438 38.8021 31.0938 38.9375 31.375C39.0729 31.6562 39.1406 31.9531 39.1406 32.2656C39.1406 32.6198 39.0573 32.9479 38.8906 33.25C38.724 33.5625 38.4896 33.8281 38.1875 34.0469C37.8958 34.276 37.5469 34.4531 37.1406 34.5781C36.7344 34.7135 36.2917 34.7812 35.8125 34.7812C35.3333 34.7812 34.8906 34.7135 34.4844 34.5781C34.0781 34.4531 33.7292 34.276 33.4375 34.0469C33.1458 33.8281 32.9167 33.5625 32.75 33.25C32.5833 32.9479 32.5 32.6198 32.5 32.2656C32.5 31.9427 32.5677 31.6406 32.7031 31.3594C32.8385 31.0677 33.0312 30.8125 33.2812 30.5938C33.5312 30.375 33.8281 30.1927 34.1719 30.0469C34.5156 29.901 34.8906 29.8073 35.2969 29.7656C35.276 29.651 35.224 29.5625 35.1406 29.5C35.0573 29.4375 34.901 29.375 34.6719 29.3125L34.8906 28.8438C35.1302 28.8958 35.4062 28.9479 35.7188 29C36.0417 29.0417 36.349 29.099 36.6406 29.1719C36.6094 29.2552 36.5729 29.349 36.5312 29.4531C36.5 29.5573 36.4688 29.6667 36.4375 29.7812ZM37.625 32.2031C37.625 31.9531 37.5729 31.724 37.4688 31.5156C37.375 31.2969 37.2448 31.1094 37.0781 30.9531C36.9115 30.7865 36.7188 30.6615 36.5 30.5781C36.2812 30.4844 36.0469 30.4375 35.7969 30.4375C35.5469 30.4375 35.3073 30.4844 35.0781 30.5781C34.8594 30.6615 34.6667 30.7865 34.5 30.9531C34.3438 31.1094 34.2135 31.2969 34.1094 31.5156C34.0156 31.724 33.9688 31.9531 33.9688 32.2031C33.9688 32.4531 34.0156 32.6875 34.1094 32.9062C34.2135 33.1146 34.3438 33.2969 34.5 33.4531C34.6667 33.6198 34.8594 33.7448 35.0781 33.8281C35.3073 33.9219 35.5469 33.9688 35.7969 33.9688C36.0469 33.9688 36.2812 33.9219 36.5 33.8281C36.7292 33.7448 36.9219 33.6198 37.0781 33.4531C37.2448 33.2969 37.375 33.1146 37.4688 32.9062C37.5729 32.6875 37.625 32.4531 37.625 32.2031ZM49.7031 20.8906C50.1615 20.9427 50.5781 21.0521 50.9531 21.2188C51.3385 21.3854 51.6667 21.5885 51.9375 21.8281C52.2188 22.0677 52.4323 22.3438 52.5781 22.6562C52.7344 22.9688 52.8125 23.2969 52.8125 23.6406C52.8125 24.0469 52.7135 24.4219 52.5156 24.7656C52.3281 25.1094 52.0625 25.4062 51.7188 25.6562C51.375 25.9062 50.9688 26.1042 50.5 26.25C50.0312 26.3958 49.5208 26.4688 48.9688 26.4688C48.4271 26.4688 47.9271 26.3958 47.4688 26.25C47.0104 26.1042 46.6094 25.9062 46.2656 25.6562C45.9323 25.4062 45.6719 25.1094 45.4844 24.7656C45.2969 24.4219 45.2031 24.0469 45.2031 23.6406C45.2031 23.2865 45.2812 22.9479 45.4375 22.625C45.6042 22.3021 45.8281 22.0208 46.1094 21.7812C46.401 21.5312 46.7448 21.3281 47.1406 21.1719C47.5469 21.0156 47.9844 20.9167 48.4531 20.875C48.4323 20.75 48.375 20.6458 48.2812 20.5625C48.1875 20.4792 48.026 20.401 47.7969 20.3281L48.0312 19.8906C48.1562 19.9115 48.2969 19.9375 48.4531 19.9688C48.6094 20 48.7708 20.0312 48.9375 20.0625C49.1146 20.0938 49.2865 20.125 49.4531 20.1562C49.6302 20.1875 49.7865 20.2135 49.9219 20.2344C49.8906 20.3281 49.8542 20.4323 49.8125 20.5469C49.7708 20.651 49.7344 20.7656 49.7031 20.8906ZM51.2656 23.5781C51.2656 23.2969 51.2031 23.0365 51.0781 22.7969C50.9635 22.5469 50.8021 22.3281 50.5938 22.1406C50.3958 21.9531 50.1615 21.8073 49.8906 21.7031C49.6198 21.5885 49.3333 21.5312 49.0312 21.5312C48.7188 21.5312 48.4271 21.5885 48.1562 21.7031C47.8854 21.8073 47.6458 21.9531 47.4375 22.1406C47.2396 22.3281 47.0781 22.5469 46.9531 22.7969C46.8385 23.0365 46.7812 23.2969 46.7812 23.5781C46.7812 23.8802 46.8385 24.1562 46.9531 24.4062C47.0677 24.6458 47.224 24.8542 47.4219 25.0312C47.6302 25.2083 47.8698 25.349 48.1406 25.4531C48.4219 25.5469 48.7188 25.5938 49.0312 25.5938C49.3438 25.5938 49.6354 25.5469 49.9062 25.4531C50.1771 25.349 50.4115 25.2083 50.6094 25.0312C50.8177 24.8542 50.9792 24.6458 51.0938 24.4062C51.2083 24.1562 51.2656 23.8802 51.2656 23.5781ZM54.1719 34.3125C53.526 34.2812 52.8281 34.2552 52.0781 34.2344C51.3385 34.224 50.6042 34.224 49.875 34.2344C49.1458 34.2448 48.4531 34.2552 47.7969 34.2656C47.1406 34.2865 46.5781 34.3125 46.1094 34.3438C45.7344 34.3646 45.4688 34.2917 45.3125 34.125C45.1667 33.9583 45.0938 33.7604 45.0938 33.5312V31.8906C45.0938 31.6615 45.0833 31.4792 45.0625 31.3438C45.0417 31.2083 44.9844 31.0938 44.8906 31C44.7969 30.9062 44.6562 30.8281 44.4688 30.7656C44.2917 30.6927 44.0417 30.6146 43.7188 30.5312L43.9688 29.9531C44.125 29.974 44.3229 30 44.5625 30.0312C44.8021 30.0625 45.0469 30.099 45.2969 30.1406C45.5573 30.1719 45.8073 30.2031 46.0469 30.2344C46.2969 30.2656 46.5 30.2917 46.6562 30.3125C46.6354 30.4375 46.6146 30.625 46.5938 30.875C46.5729 31.125 46.5625 31.3438 46.5625 31.5312V33.0312C46.5625 33.2292 46.5938 33.349 46.6562 33.3906C46.7188 33.4427 46.8594 33.474 47.0781 33.4844C47.3385 33.4948 47.6562 33.4948 48.0312 33.4844C48.4167 33.4844 48.8281 33.474 49.2656 33.4531C49.7135 33.4427 50.1719 33.4219 50.6406 33.3906C51.1198 33.3698 51.5833 33.3438 52.0312 33.3125C52.4896 33.2812 52.9219 33.2448 53.3281 33.2031C53.7344 33.1719 54.0885 33.1302 54.3906 33.0781L54.1719 34.3125ZM50.1094 29.25C50.1094 29.4375 50.1042 29.6458 50.0938 29.875C50.0833 30.0938 50.0677 30.3229 50.0469 30.5625C50.026 30.8021 50 31.0365 49.9688 31.2656C49.9479 31.4844 49.9271 31.6875 49.9062 31.875L48.7656 32.0469C48.7448 31.8594 48.724 31.6458 48.7031 31.4062C48.6927 31.1667 48.6771 30.9271 48.6562 30.6875C48.6458 30.4479 48.6354 30.224 48.625 30.0156C48.625 29.8073 48.625 29.6302 48.625 29.4844V28.5625C48.1875 28.5729 47.7552 28.5885 47.3281 28.6094C46.901 28.6198 46.5 28.6354 46.125 28.6562C45.75 28.6667 45.4115 28.6823 45.1094 28.7031C44.8177 28.7135 44.5885 28.724 44.4219 28.7344C44.0365 28.7552 43.6146 28.7865 43.1562 28.8281C42.6979 28.8698 42.2865 28.9167 41.9219 28.9688L41.3906 27.6094C41.8594 27.6615 42.3594 27.7083 42.8906 27.75C43.4323 27.7812 43.9375 27.8073 44.4062 27.8281C44.6562 27.8385 44.9896 27.8438 45.4062 27.8438C45.8229 27.8438 46.276 27.8438 46.7656 27.8438C47.2656 27.8333 47.7812 27.8229 48.3125 27.8125C48.8542 27.7917 49.3698 27.776 49.8594 27.7656C50.349 27.7552 50.8021 27.7448 51.2188 27.7344C51.6354 27.7135 51.9688 27.6979 52.2188 27.6875C52.9167 27.6562 53.625 27.6094 54.3438 27.5469C55.0625 27.474 55.7083 27.3958 56.2812 27.3125L56.0781 28.5938C55.8698 28.5833 55.625 28.5729 55.3438 28.5625C55.0729 28.5521 54.776 28.5469 54.4531 28.5469C54.1302 28.5365 53.7969 28.526 53.4531 28.5156C53.1094 28.5052 52.7656 28.5 52.4219 28.5C52.151 28.5 51.8177 28.5 51.4219 28.5C51.0365 28.5 50.599 28.5104 50.1094 28.5312V29.25ZM69.8906 27.7344C69.8906 28.0469 69.875 28.3594 69.8438 28.6719C69.8125 28.9844 69.7656 29.2604 69.7031 29.5C69.8385 29.5417 69.9688 29.5833 70.0938 29.625C70.2188 29.6562 70.3385 29.6927 70.4531 29.7344C70.1615 30.2656 69.8125 30.75 69.4062 31.1875C69.8229 31.4375 70.2656 31.6823 70.7344 31.9219C71.2135 32.1615 71.6875 32.3958 72.1562 32.625C72.6354 32.8438 73.1042 33.0469 73.5625 33.2344C74.0208 33.4323 74.4427 33.6042 74.8281 33.75L73.7031 34.8438C72.901 34.3021 72.0885 33.7812 71.2656 33.2812C70.4531 32.7812 69.6458 32.2865 68.8438 31.7969C68.4792 32.151 68.0885 32.4896 67.6719 32.8125C67.2656 33.125 66.8438 33.4167 66.4062 33.6875C65.9688 33.9583 65.5208 34.2031 65.0625 34.4219C64.6146 34.6406 64.1771 34.8333 63.75 35L63.375 34.5312C63.9688 34.2604 64.5208 33.9531 65.0312 33.6094C65.5417 33.276 66.0052 32.9271 66.4219 32.5625C66.8385 32.1979 67.2083 31.8281 67.5312 31.4531C67.8646 31.0781 68.1406 30.7135 68.3594 30.3594C68.3802 30.3177 68.401 30.25 68.4219 30.1562C68.4427 30.0521 68.401 29.974 68.2969 29.9219C68.1615 29.8594 68.026 29.7917 67.8906 29.7188C67.7552 29.6354 67.5573 29.5365 67.2969 29.4219L67.75 28.9531C67.8542 28.974 67.9635 29 68.0781 29.0312C68.1927 29.0625 68.3125 29.0938 68.4375 29.125C68.4167 28.9271 68.401 28.724 68.3906 28.5156C68.3802 28.3073 68.375 28.1198 68.375 27.9531V27.6562C67.9583 27.6667 67.5469 27.6771 67.1406 27.6875C66.7344 27.6979 66.3542 27.7135 66 27.7344C65.6562 27.7448 65.3438 27.7552 65.0625 27.7656C64.7917 27.776 64.5781 27.7865 64.4219 27.7969C64.0365 27.8177 63.6146 27.8542 63.1562 27.9062C62.6979 27.9479 62.2865 27.9948 61.9219 28.0469L61.3906 26.6562C61.8594 26.7188 62.3594 26.7708 62.8906 26.8125C63.4323 26.8438 63.9375 26.8698 64.4062 26.8906C64.6562 26.901 64.9896 26.9062 65.4062 26.9062C65.8229 26.9062 66.276 26.9062 66.7656 26.9062C67.2656 26.8958 67.7812 26.8854 68.3125 26.875C68.8542 26.8542 69.3698 26.8385 69.8594 26.8281C70.349 26.8177 70.8021 26.8073 71.2188 26.7969C71.6354 26.776 71.9688 26.7604 72.2188 26.75C72.9167 26.7188 73.625 26.6719 74.3438 26.6094C75.0625 26.5365 75.7083 26.4635 76.2812 26.3906L76.0781 27.6719C75.8698 27.6615 75.625 27.651 75.3438 27.6406C75.0729 27.6302 74.776 27.625 74.4531 27.625C74.1302 27.6146 73.7969 27.6042 73.4531 27.5938C73.1094 27.5833 72.7656 27.5781 72.4219 27.5781C72.1406 27.5781 71.7812 27.5833 71.3438 27.5938C70.9062 27.5938 70.4219 27.6042 69.8906 27.625V27.7344ZM69.3125 22.25C70.1667 22.6875 71.0833 23.1042 72.0625 23.5C73.0521 23.8958 74.0417 24.2448 75.0312 24.5469L73.9062 25.6875C73.5417 25.4896 73.1458 25.276 72.7188 25.0469C72.3021 24.8073 71.8698 24.5625 71.4219 24.3125C70.974 24.0625 70.5208 23.8125 70.0625 23.5625C69.6042 23.3125 69.1667 23.0729 68.75 22.8438C67.9375 23.625 67.0312 24.2969 66.0312 24.8594C65.0312 25.4115 64.0365 25.8542 63.0469 26.1875L62.625 25.6562C63.25 25.4271 63.8438 25.151 64.4062 24.8281C64.9792 24.5052 65.5104 24.1562 66 23.7812C66.5 23.4062 66.9479 23.0104 67.3438 22.5938C67.7396 22.1771 68.0729 21.75 68.3438 21.3125C68.4583 21.1146 68.4479 20.9635 68.3125 20.8594C68.2188 20.7865 68.0677 20.6927 67.8594 20.5781C67.6615 20.4635 67.4844 20.375 67.3281 20.3125L67.7344 19.8281C67.9323 19.8906 68.151 19.9583 68.3906 20.0312C68.6406 20.1042 68.8854 20.1823 69.125 20.2656C69.375 20.3385 69.6146 20.4167 69.8438 20.5C70.0833 20.5729 70.3021 20.6458 70.5 20.7188C70.3229 20.9896 70.1406 21.2552 69.9531 21.5156C69.7656 21.7656 69.5521 22.0104 69.3125 22.25ZM82.5625 26.8438C83.1146 27.2917 83.6979 27.7552 84.3125 28.2344C84.9375 28.7031 85.6042 29.1562 86.3125 29.5938L85.1719 30.6094C84.6406 30.0469 84.125 29.5104 83.625 29C83.125 28.4896 82.599 27.9635 82.0469 27.4219C81.3594 28.1823 80.6042 28.875 79.7812 29.5C78.9688 30.125 78.1198 30.6719 77.2344 31.1406L76.8281 30.6562C77.5469 30.2083 78.2344 29.6979 78.8906 29.125C79.5573 28.5417 80.1615 27.9323 80.7031 27.2969C81.2552 26.651 81.7292 25.9896 82.125 25.3125C82.5312 24.625 82.8333 23.9479 83.0312 23.2812C82.875 23.2812 82.6823 23.2865 82.4531 23.2969C82.224 23.3073 81.9844 23.3177 81.7344 23.3281C81.4844 23.3385 81.2448 23.349 81.0156 23.3594C80.7865 23.3698 80.599 23.375 80.4531 23.375C80.3385 23.375 80.1875 23.3854 80 23.4062C79.8125 23.4271 79.6094 23.4479 79.3906 23.4688C79.1823 23.4896 78.9688 23.5156 78.75 23.5469C78.5312 23.5677 78.3333 23.5938 78.1562 23.625L77.3438 22.3438C77.4792 22.3646 77.651 22.3906 77.8594 22.4219C78.0677 22.4427 78.2865 22.4635 78.5156 22.4844C78.7448 22.5052 78.9688 22.526 79.1875 22.5469C79.4167 22.5573 79.6198 22.5625 79.7969 22.5625C80.1719 22.5625 80.5729 22.5573 81 22.5469C81.4375 22.5365 81.8646 22.5156 82.2812 22.4844C82.7083 22.4531 83.1146 22.4115 83.5 22.3594C83.8854 22.3073 84.224 22.25 84.5156 22.1875L85.0156 22.6406C84.7448 23.4115 84.401 24.1458 83.9844 24.8438C83.5781 25.5417 83.1042 26.2083 82.5625 26.8438ZM88.4219 30.3125C88.4219 30.6354 88.4167 31.0104 88.4062 31.4375C88.3958 31.8542 88.3802 32.276 88.3594 32.7031C88.3385 33.1198 88.3125 33.5156 88.2812 33.8906C88.25 34.276 88.2135 34.5833 88.1719 34.8125L87.0938 34.9531C87.0729 34.7865 87.0521 34.5625 87.0312 34.2812C87.0208 34 87.0052 33.6979 86.9844 33.375C86.974 33.0625 86.9635 32.7396 86.9531 32.4062C86.9531 32.0625 86.9531 31.7396 86.9531 31.4375V21.625C86.9531 21.3021 86.8021 21.0417 86.5 20.8438C86.2083 20.6354 85.7188 20.4479 85.0312 20.2812L85.2656 19.7031C85.526 19.7344 85.8073 19.776 86.1094 19.8281C86.4219 19.8698 86.7292 19.9219 87.0312 19.9844C87.3333 20.0365 87.6198 20.0885 87.8906 20.1406C88.1615 20.1927 88.3958 20.2344 88.5938 20.2656C88.5729 20.3594 88.5521 20.474 88.5312 20.6094C88.5104 20.7448 88.4896 20.8854 88.4688 21.0312C88.4583 21.1667 88.4479 21.2917 88.4375 21.4062C88.4271 21.5208 88.4219 21.6042 88.4219 21.6562V26.2031C88.651 26.1927 88.8958 26.1771 89.1562 26.1562C89.4271 26.125 89.6979 26.0938 89.9688 26.0625C90.25 26.0312 90.526 26 90.7969 25.9688C91.0677 25.9271 91.3229 25.8802 91.5625 25.8281L91.4219 27.0938C91.2344 27.0833 91.0156 27.0781 90.7656 27.0781C90.5156 27.0781 90.25 27.0781 89.9688 27.0781C89.6979 27.0781 89.4271 27.0781 89.1562 27.0781C88.8854 27.0781 88.6406 27.0781 88.4219 27.0781V30.3125ZM103.438 27.5781C102.844 27.5573 102.198 27.5573 101.5 27.5781C100.812 27.599 100.141 27.6302 99.4844 27.6719C99.4531 27.849 99.4167 28.0052 99.375 28.1406L98.375 28.2969C98.3438 28.099 98.3125 27.8438 98.2812 27.5312C98.25 27.2188 98.2344 26.9167 98.2344 26.625V23.2031C98.2344 23.0365 98.2188 22.8958 98.1875 22.7812C98.1562 22.6562 98.0938 22.5521 98 22.4688C97.9062 22.3854 97.776 22.3125 97.6094 22.25C97.4427 22.1875 97.2292 22.125 96.9688 22.0625L97.2188 21.5312C97.3854 21.5521 97.5781 21.5729 97.7969 21.5938C98.0156 21.6146 98.2396 21.6406 98.4688 21.6719C98.7083 21.7031 98.9427 21.7396 99.1719 21.7812C99.401 21.8125 99.6198 21.849 99.8281 21.8906C99.8073 21.9844 99.7865 22.0938 99.7656 22.2188C99.7448 22.3438 99.724 22.4688 99.7031 22.5938C99.6927 22.7188 99.6823 22.8333 99.6719 22.9375C99.6615 23.0417 99.6562 23.125 99.6562 23.1875V23.6875C100.24 23.6667 100.839 23.6406 101.453 23.6094C102.068 23.5781 102.703 23.5365 103.359 23.4844V22.5938C103.359 22.4271 103.339 22.2865 103.297 22.1719C103.255 22.0573 103.182 21.9583 103.078 21.875C102.974 21.7917 102.828 21.7188 102.641 21.6562C102.464 21.5833 102.234 21.5156 101.953 21.4531L102.172 20.875C102.609 20.9271 103.083 20.9896 103.594 21.0625C104.115 21.125 104.578 21.1979 104.984 21.2812C104.964 21.375 104.943 21.4844 104.922 21.6094C104.901 21.7344 104.88 21.8594 104.859 21.9844C104.849 22.1094 104.839 22.224 104.828 22.3281C104.818 22.4323 104.812 22.5156 104.812 22.5781V25.75C104.812 26.2292 104.776 26.6615 104.703 27.0469C104.641 27.4219 104.583 27.7292 104.531 27.9688L103.516 28.125C103.505 28.0417 103.495 27.9583 103.484 27.875C103.474 27.7812 103.458 27.6823 103.438 27.5781ZM103.359 26.4375V24.4062C102.776 24.3854 102.167 24.3854 101.531 24.4062C100.906 24.4167 100.281 24.4427 99.6562 24.4844V25.9531C99.6562 26.2656 99.6406 26.5625 99.6094 26.8438C100.203 26.8333 100.823 26.8125 101.469 26.7812C102.125 26.75 102.755 26.7083 103.359 26.6562V26.4375ZM99.7969 29.2344C100.453 29.349 101.203 29.4219 102.047 29.4531C102.891 29.4844 103.729 29.4896 104.562 29.4688C105.406 29.4375 106.198 29.3906 106.938 29.3281C107.677 29.2656 108.281 29.1979 108.75 29.125L108.5 30.3438C107.865 30.3125 107.271 30.2917 106.719 30.2812C106.177 30.2604 105.661 30.2552 105.172 30.2656C104.682 30.2656 104.208 30.276 103.75 30.2969C103.292 30.3073 102.828 30.3281 102.359 30.3594V33.0156C102.359 33.224 102.391 33.349 102.453 33.3906C102.516 33.4427 102.667 33.474 102.906 33.4844C103.292 33.4948 103.75 33.4896 104.281 33.4688C104.812 33.4583 105.365 33.4323 105.938 33.3906C106.51 33.3594 107.073 33.3177 107.625 33.2656C108.188 33.2135 108.693 33.151 109.141 33.0781L108.906 34.3125C108.271 34.2812 107.635 34.2552 107 34.2344C106.375 34.224 105.766 34.224 105.172 34.2344C104.589 34.2448 104.026 34.2552 103.484 34.2656C102.953 34.2865 102.458 34.3125 102 34.3438C101.625 34.3646 101.344 34.2708 101.156 34.0625C100.979 33.8646 100.891 33.625 100.891 33.3438V31.1562C100.891 30.9375 100.875 30.7604 100.844 30.625C100.812 30.4896 100.75 30.375 100.656 30.2812C100.562 30.1771 100.422 30.0885 100.234 30.0156C100.057 29.9427 99.8229 29.8646 99.5312 29.7812L99.7969 29.2344ZM108.469 26.125C108.469 26.3125 108.458 26.5312 108.438 26.7812C108.427 27.0208 108.411 27.2656 108.391 27.5156C108.37 27.7656 108.344 28.0052 108.312 28.2344C108.292 28.4531 108.266 28.6302 108.234 28.7656L107.125 28.9219C107.104 28.8073 107.089 28.6667 107.078 28.5C107.068 28.3333 107.052 28.1615 107.031 27.9844C107.021 27.8073 107.01 27.6302 107 27.4531C107 27.2656 107 27.099 107 26.9531V21.625C107 21.3021 106.849 21.0417 106.547 20.8438C106.255 20.6354 105.766 20.4479 105.078 20.2812L105.312 19.7031C105.573 19.7344 105.854 19.776 106.156 19.8281C106.469 19.8698 106.776 19.9219 107.078 19.9844C107.38 20.0365 107.667 20.0885 107.938 20.1406C108.208 20.1927 108.443 20.2344 108.641 20.2656C108.62 20.3594 108.599 20.474 108.578 20.6094C108.557 20.7448 108.536 20.8854 108.516 21.0312C108.505 21.1667 108.495 21.2917 108.484 21.4062C108.474 21.5208 108.469 21.6042 108.469 21.6562V24.0938C108.688 24.0833 108.927 24.0625 109.188 24.0312C109.448 24 109.714 23.9688 109.984 23.9375C110.255 23.9062 110.521 23.875 110.781 23.8438C111.052 23.8021 111.307 23.7604 111.547 23.7188L111.375 24.9531C111.188 24.9427 110.974 24.9375 110.734 24.9375C110.495 24.9375 110.24 24.9375 109.969 24.9375C109.708 24.9375 109.448 24.9375 109.188 24.9375C108.927 24.9375 108.688 24.9375 108.469 24.9375V26.125ZM120.766 22.8281C120.464 23.7344 120.047 24.6198 119.516 25.4844C118.995 26.3385 118.396 27.1406 117.719 27.8906C117.052 28.6302 116.323 29.3073 115.531 29.9219C114.74 30.526 113.932 31.0365 113.109 31.4531L112.641 30.9844C113.391 30.5469 114.099 30.0312 114.766 29.4375C115.432 28.8333 116.031 28.1979 116.562 27.5312C117.104 26.8646 117.568 26.1823 117.953 25.4844C118.339 24.7865 118.625 24.1146 118.812 23.4688C118.656 23.4688 118.453 23.474 118.203 23.4844C117.964 23.4948 117.708 23.5052 117.438 23.5156C117.177 23.5156 116.922 23.5208 116.672 23.5312C116.422 23.5417 116.224 23.5469 116.078 23.5469C115.964 23.5469 115.812 23.5573 115.625 23.5781C115.438 23.599 115.234 23.6198 115.016 23.6406C114.797 23.6615 114.578 23.6875 114.359 23.7188C114.141 23.7396 113.948 23.7656 113.781 23.7969L112.984 22.5469C113.12 22.5677 113.292 22.5938 113.5 22.625C113.708 22.6458 113.927 22.6667 114.156 22.6875C114.385 22.7083 114.609 22.724 114.828 22.7344C115.057 22.7448 115.26 22.75 115.438 22.75C115.812 22.75 116.219 22.7448 116.656 22.7344C117.104 22.7135 117.547 22.6875 117.984 22.6562C118.422 22.625 118.839 22.5833 119.234 22.5312C119.641 22.4792 119.995 22.4219 120.297 22.3594L120.766 22.8281ZM121.234 19.7031C121.484 19.7344 121.76 19.776 122.062 19.8281C122.365 19.8698 122.667 19.9219 122.969 19.9844C123.271 20.0365 123.557 20.0885 123.828 20.1406C124.109 20.1927 124.354 20.2344 124.562 20.2656C124.542 20.3594 124.521 20.474 124.5 20.6094C124.479 20.7448 124.458 20.8854 124.438 21.0312C124.427 21.1667 124.417 21.2917 124.406 21.4062C124.396 21.5208 124.391 21.6042 124.391 21.6562V30.3125C124.391 30.6354 124.38 31.0104 124.359 31.4375C124.349 31.8542 124.328 32.276 124.297 32.7031C124.276 33.1198 124.25 33.5156 124.219 33.8906C124.188 34.276 124.151 34.5833 124.109 34.8125L123.062 34.9531C123.042 34.7865 123.021 34.5625 123 34.2812C122.99 34 122.974 33.6979 122.953 33.375C122.943 33.0625 122.932 32.7396 122.922 32.4062C122.922 32.0625 122.922 31.7396 122.922 31.4375V21.625C122.922 21.3021 122.766 21.0417 122.453 20.8438C122.151 20.6354 121.656 20.4479 120.969 20.2812L121.234 19.7031Z" fill="#383838"/>
<line x1="185.673" y1="20" x2="192.695" y2="27.022" stroke="#383838" stroke-linecap="round" stroke-linejoin="round"/>
<line x1="192.695" y1="27.8296" x2="185.673" y2="34.8516" stroke="#383838" stroke-linecap="round" stroke-linejoin="round"/>
<line x1="173" y1="27.3348" x2="192.943" y2="27.3348" stroke="#383838"/>
</svg>
