<svg width="219" height="55" viewBox="0 0 219 55" fill="none" xmlns="http://www.w3.org/2000/svg">
<rect x="0.5" y="0.5" width="218" height="54" fill="#F1F1F1" stroke="#383838"/>
<path d="M33.9688 23.6562C33.5938 24.2396 33.1562 24.8021 32.6562 25.3438C32.1667 25.875 31.6302 26.3698 31.0469 26.8281C30.474 27.2865 29.8698 27.7083 29.2344 28.0938C28.599 28.4688 27.9583 28.7865 27.3125 29.0469L26.9219 28.5781C27.5677 28.276 28.2031 27.901 28.8281 27.4531C29.4531 27.0052 30.0312 26.5104 30.5625 25.9688C31.1042 25.4271 31.5885 24.8594 32.0156 24.2656C32.4427 23.6615 32.776 23.0521 33.0156 22.4375C32.7865 22.4375 32.5469 22.4427 32.2969 22.4531C32.0573 22.4531 31.8229 22.4583 31.5938 22.4688C31.375 22.4792 31.1719 22.4896 30.9844 22.5C30.8073 22.5104 30.6667 22.5208 30.5625 22.5312C30.4583 22.5417 30.3125 22.5521 30.125 22.5625C29.9375 22.5729 29.7396 22.5938 29.5312 22.625C29.3229 22.6458 29.1094 22.6719 28.8906 22.7031C28.6719 22.7344 28.4792 22.7708 28.3125 22.8125L27.4688 21.5469C27.5938 21.5677 27.7604 21.5885 27.9688 21.6094C28.1875 21.6302 28.4167 21.651 28.6562 21.6719C28.8958 21.6823 29.1354 21.6927 29.375 21.7031C29.6146 21.7135 29.8229 21.7188 30 21.7188C30.4271 21.7188 30.8646 21.7083 31.3125 21.6875C31.7604 21.6667 32.1823 21.6406 32.5781 21.6094C32.9844 21.5677 33.349 21.526 33.6719 21.4844C33.9948 21.4427 34.25 21.3958 34.4375 21.3438L34.9844 21.7031C34.8073 22.224 34.5677 22.7083 34.2656 23.1562C34.5052 23.1771 34.7604 23.1979 35.0312 23.2188C35.3125 23.2396 35.5573 23.2448 35.7656 23.2344C36.0156 23.224 36.2917 23.2135 36.5938 23.2031C36.8958 23.1927 37.1823 23.1771 37.4531 23.1562V21.625C37.4531 21.3021 37.2969 21.0417 36.9844 20.8438C36.6823 20.6354 36.1875 20.4479 35.5 20.2812L35.7812 19.7031C36.0312 19.7344 36.3073 19.776 36.6094 19.8281C36.9115 19.8698 37.2135 19.9219 37.5156 19.9844C37.8177 20.0365 38.1042 20.0885 38.375 20.1406C38.6562 20.1927 38.901 20.2344 39.1094 20.2656C39.0885 20.3594 39.0677 20.474 39.0469 20.6094C39.026 20.7448 39.0052 20.8854 38.9844 21.0312C38.9635 21.1667 38.9479 21.2917 38.9375 21.4062C38.9271 21.5208 38.9219 21.6042 38.9219 21.6562V25.2031C38.9219 25.3906 38.9115 25.6094 38.8906 25.8594C38.8802 26.1094 38.8594 26.3646 38.8281 26.625C38.8073 26.875 38.7812 27.1146 38.75 27.3438C38.7188 27.5625 38.6875 27.7344 38.6562 27.8594L37.5781 28.0312C37.5573 27.8542 37.5365 27.625 37.5156 27.3438C37.4948 27.0625 37.474 26.7865 37.4531 26.5156C37.1406 26.526 36.8125 26.5417 36.4688 26.5625C36.125 26.5833 35.7812 26.6094 35.4375 26.6406C35.0938 26.6615 34.7604 26.6927 34.4375 26.7344C34.1146 26.7656 33.8125 26.8021 33.5312 26.8438L33.0156 25.6406C33.1302 25.6615 33.2708 25.6823 33.4375 25.7031C33.6146 25.724 33.7969 25.7448 33.9844 25.7656C34.1823 25.776 34.375 25.7865 34.5625 25.7969C34.7604 25.7969 34.9375 25.7969 35.0938 25.7969C35.3958 25.7865 35.7656 25.7812 36.2031 25.7812C36.651 25.7708 37.0677 25.7552 37.4531 25.7344V23.9375C36.8594 23.9583 36.2865 24 35.7344 24.0625C35.1927 24.1146 34.6927 24.1823 34.2344 24.2656L33.9688 23.6562ZM37.2188 29.1094C36.9688 29.099 36.6667 29.0938 36.3125 29.0938C35.9688 29.0938 35.6094 29.1042 35.2344 29.125C34.8698 29.1354 34.5052 29.151 34.1406 29.1719C33.7865 29.1823 33.4792 29.1979 33.2188 29.2188C33.1042 29.2292 32.9531 29.2448 32.7656 29.2656C32.5885 29.276 32.3906 29.2917 32.1719 29.3125C31.9531 29.3333 31.7292 29.3594 31.5 29.3906C31.2812 29.4219 31.0781 29.4531 30.8906 29.4844L30.1562 28.2344C30.2812 28.2552 30.4427 28.2812 30.6406 28.3125C30.849 28.3333 31.0625 28.3542 31.2812 28.375C31.5104 28.3958 31.7344 28.4167 31.9531 28.4375C32.1823 28.4479 32.3802 28.4531 32.5469 28.4531C32.9427 28.4531 33.401 28.4531 33.9219 28.4531C34.4531 28.4531 35.0052 28.4479 35.5781 28.4375C36.151 28.4167 36.7292 28.3906 37.3125 28.3594C37.8958 28.3281 38.4375 28.2917 38.9375 28.25C38.9062 28.3958 38.875 28.5417 38.8438 28.6875C38.8229 28.8125 38.7969 28.9427 38.7656 29.0781C38.7448 29.2135 38.724 29.3281 38.7031 29.4219L38.5 30.75C38.5833 30.7396 38.6562 30.7344 38.7188 30.7344C38.7812 30.7344 38.8438 30.7292 38.9062 30.7188L38.7969 31.7031C38.2031 31.6719 37.5938 31.6562 36.9688 31.6562C36.3542 31.6562 35.7656 31.6615 35.2031 31.6719C34.6406 31.6823 34.1302 31.6979 33.6719 31.7188C33.224 31.7292 32.8698 31.7396 32.6094 31.75C32.599 31.8333 32.5938 31.9219 32.5938 32.0156C32.5938 32.099 32.5938 32.1823 32.5938 32.2656V33.2969C32.5938 33.4531 32.6146 33.5469 32.6562 33.5781C32.7083 33.6198 32.8333 33.6458 33.0312 33.6562C33.4062 33.6667 33.8802 33.6615 34.4531 33.6406C35.026 33.6302 35.6198 33.6042 36.2344 33.5625C36.8594 33.5208 37.4688 33.4688 38.0625 33.4062C38.6667 33.3438 39.1823 33.276 39.6094 33.2031L39.375 34.4531C38.8125 34.4323 38.2031 34.4167 37.5469 34.4062C36.8906 34.4062 36.2396 34.4115 35.5938 34.4219C34.9479 34.4323 34.3229 34.4427 33.7188 34.4531C33.1146 34.474 32.5781 34.4948 32.1094 34.5156C31.7552 34.5365 31.5052 34.4635 31.3594 34.2969C31.2135 34.1302 31.1406 33.9115 31.1406 33.6406V32.5C31.1406 32.3125 31.125 32.1615 31.0938 32.0469C31.0729 31.9219 31.0208 31.8177 30.9375 31.7344C30.8646 31.6406 30.75 31.5625 30.5938 31.5C30.4479 31.4375 30.2552 31.3646 30.0156 31.2812L30.2344 30.8125C30.776 30.8646 31.3438 30.901 31.9375 30.9219C32.5312 30.9427 33.1302 30.9531 33.7344 30.9531C34.3385 30.9531 34.9323 30.9479 35.5156 30.9375C36.099 30.9167 36.651 30.8906 37.1719 30.8594L37.2188 29.1094ZM46.7344 29.7812C47.6719 29.6979 48.5677 29.5938 49.4219 29.4688C50.2865 29.3333 51.1094 29.1771 51.8906 29V21.625C51.8906 21.3021 51.7396 21.0417 51.4375 20.8438C51.1458 20.6354 50.6562 20.4479 49.9688 20.2812L50.2188 19.7031C50.4792 19.7344 50.7604 19.776 51.0625 19.8281C51.3646 19.8698 51.6667 19.9219 51.9688 19.9844C52.2708 20.0365 52.5573 20.0885 52.8281 20.1406C53.1094 20.1927 53.349 20.2344 53.5469 20.2656C53.526 20.3594 53.5 20.474 53.4688 20.6094C53.4479 20.7448 53.4271 20.8854 53.4062 21.0312C53.3958 21.1667 53.3854 21.2917 53.375 21.4062C53.3646 21.5208 53.3594 21.6042 53.3594 21.6562V26.5156C53.5885 26.5052 53.8333 26.4896 54.0938 26.4688C54.3542 26.4375 54.6198 26.4062 54.8906 26.375C55.1615 26.3438 55.4271 26.3125 55.6875 26.2812C55.9583 26.25 56.2135 26.2135 56.4531 26.1719L56.2969 27.4375C56.1198 27.4271 55.9062 27.4219 55.6562 27.4219C55.4167 27.4219 55.1615 27.4219 54.8906 27.4219C54.6302 27.4219 54.3646 27.4219 54.0938 27.4219C53.8333 27.4219 53.5885 27.4219 53.3594 27.4219V30.3125C53.3594 30.6354 53.349 31.0104 53.3281 31.4375C53.3177 31.8542 53.3021 32.276 53.2812 32.7031C53.2604 33.1198 53.2344 33.5156 53.2031 33.8906C53.1719 34.276 53.1406 34.5833 53.1094 34.8125L52.0312 34.9531C52.0104 34.7865 51.9896 34.5625 51.9688 34.2812C51.9583 34 51.9427 33.6979 51.9219 33.375C51.9115 33.0625 51.901 32.7396 51.8906 32.4062C51.8906 32.0625 51.8906 31.7396 51.8906 31.4375V29.6719C51.276 29.8073 50.651 29.9375 50.0156 30.0625C49.3802 30.1771 48.7552 30.2865 48.1406 30.3906C47.526 30.4948 46.9323 30.5833 46.3594 30.6562C45.7969 30.7292 45.2708 30.7865 44.7812 30.8281C44.6667 30.8385 44.5052 30.8542 44.2969 30.875C44.099 30.8854 43.8802 30.9062 43.6406 30.9375C43.4115 30.9583 43.1771 30.9844 42.9375 31.0156C42.7083 31.0365 42.5052 31.0625 42.3281 31.0938L41.5625 29.7812C41.7292 29.8125 41.9271 29.8385 42.1562 29.8594C42.3854 29.8802 42.6146 29.901 42.8438 29.9219C43.0833 29.9323 43.3073 29.9427 43.5156 29.9531C43.7344 29.9635 43.9167 29.9635 44.0625 29.9531C44.2708 29.9427 44.474 29.9323 44.6719 29.9219C44.8802 29.9115 45.0833 29.9062 45.2812 29.9062V26.9531C45.2812 26.7865 45.2708 26.651 45.25 26.5469C45.2292 26.4323 45.1771 26.3385 45.0938 26.2656C45.0104 26.1823 44.8854 26.1094 44.7188 26.0469C44.5625 25.9844 44.3438 25.9219 44.0625 25.8594L44.2969 25.2812C44.474 25.3021 44.6719 25.3229 44.8906 25.3438C45.1094 25.3646 45.3333 25.3906 45.5625 25.4219C45.7917 25.4427 46.0208 25.4688 46.25 25.5C46.4792 25.5312 46.6927 25.5677 46.8906 25.6094C46.8698 25.7031 46.849 25.8125 46.8281 25.9375C46.8177 26.0625 46.8021 26.1875 46.7812 26.3125C46.7708 26.4271 46.7604 26.5417 46.75 26.6562C46.7396 26.7604 46.7344 26.8438 46.7344 26.9062V29.7812ZM48.1094 28.2188C48.2031 27.7812 48.2917 27.3177 48.375 26.8281C48.4583 26.3385 48.5312 25.8594 48.5938 25.3906C48.6562 24.9115 48.7031 24.4531 48.7344 24.0156C48.776 23.5781 48.7969 23.1875 48.7969 22.8438C48.1719 22.8438 47.5885 22.8542 47.0469 22.875C46.5052 22.8958 45.9167 22.9323 45.2812 22.9844C44.9688 23.0052 44.6094 23.0365 44.2031 23.0781C43.8073 23.1198 43.4167 23.1771 43.0312 23.25L42.3281 21.9844C42.7448 22.0365 43.1771 22.0833 43.625 22.125C44.0833 22.1667 44.4792 22.1875 44.8125 22.1875C45.625 22.1875 46.4896 22.1615 47.4062 22.1094C48.3229 22.0469 49.2448 21.9323 50.1719 21.7656L50.5938 22.1719C50.5208 22.6094 50.4375 23.0833 50.3438 23.5938C50.25 24.1042 50.1406 24.6198 50.0156 25.1406C49.901 25.6615 49.7708 26.1771 49.625 26.6875C49.4896 27.1875 49.3333 27.651 49.1562 28.0781L48.1094 28.2188ZM71.6719 28.4688C71.3802 28.4583 71.0729 28.4531 70.75 28.4531C70.4375 28.4427 70.1094 28.4427 69.7656 28.4531V31.5625C70.2344 31.5417 70.6562 31.526 71.0312 31.5156C71.4167 31.5052 71.7344 31.4948 71.9844 31.4844C72.6823 31.4531 73.3906 31.401 74.1094 31.3281C74.8385 31.2552 75.4844 31.1823 76.0469 31.1094L75.8594 32.3906C75.4427 32.3698 74.901 32.3542 74.2344 32.3438C73.5677 32.3333 72.8854 32.3229 72.1875 32.3125C71.8958 32.3125 71.5417 32.3177 71.125 32.3281C70.7083 32.3281 70.2552 32.3385 69.7656 32.3594C69.2865 32.3698 68.7917 32.3854 68.2812 32.4062C67.7812 32.4167 67.3021 32.4323 66.8438 32.4531C66.3854 32.4635 65.9688 32.4792 65.5938 32.5C65.2292 32.5208 64.9427 32.5365 64.7344 32.5469C64.3385 32.5677 63.9167 32.599 63.4688 32.6406C63.0208 32.6823 62.6042 32.7292 62.2188 32.7812L61.7188 31.4062C62.1875 31.4583 62.6823 31.5052 63.2031 31.5469C63.7344 31.5781 64.2396 31.6042 64.7188 31.625C64.9062 31.6354 65.1302 31.6406 65.3906 31.6406C65.6615 31.6406 65.9531 31.6406 66.2656 31.6406C66.5781 31.6406 66.9062 31.6406 67.25 31.6406C67.5938 31.6302 67.9427 31.6198 68.2969 31.6094V28.4844C67.9219 28.4948 67.5469 28.5052 67.1719 28.5156C66.7969 28.5156 66.4375 28.526 66.0938 28.5469C66.0729 28.6615 66.0521 28.7604 66.0312 28.8438C66.0208 28.9271 66.0052 29.0104 65.9844 29.0938L64.9844 29.25C64.9531 29.0521 64.9167 28.8021 64.875 28.5C64.8438 28.1875 64.8281 27.8854 64.8281 27.5938V23.125C64.8281 22.9583 64.8073 22.8177 64.7656 22.7031C64.7344 22.5885 64.6719 22.4896 64.5781 22.4062C64.4844 22.3125 64.349 22.2344 64.1719 22.1719C64.0052 22.099 63.7865 22.0312 63.5156 21.9688L63.75 21.4531C63.9271 21.474 64.125 21.4948 64.3438 21.5156C64.5729 21.5365 64.8073 21.5625 65.0469 21.5938C65.2969 21.625 65.5365 21.6615 65.7656 21.7031C66.0052 21.7344 66.2292 21.7708 66.4375 21.8125C66.4167 21.9062 66.3958 22.0156 66.375 22.1406C66.3542 22.2656 66.3333 22.3906 66.3125 22.5156C66.3021 22.6406 66.2917 22.7552 66.2812 22.8594C66.2708 22.9635 66.2656 23.0469 66.2656 23.1094V24.1406C67.0677 24.1198 67.9375 24.0938 68.875 24.0625C69.8229 24.0312 70.7344 23.9792 71.6094 23.9062V22.5156C71.6094 22.349 71.5885 22.2135 71.5469 22.1094C71.5052 21.9948 71.4271 21.8958 71.3125 21.8125C71.1979 21.7188 71.0417 21.6406 70.8438 21.5781C70.6562 21.5156 70.4167 21.4479 70.125 21.375L70.375 20.7969C70.8125 20.849 71.2969 20.9115 71.8281 20.9844C72.3594 21.0469 72.8229 21.1198 73.2188 21.2031C73.1979 21.2969 73.1771 21.4062 73.1562 21.5312C73.1458 21.6562 73.1354 21.7812 73.125 21.9062C73.1146 22.0312 73.1042 22.1458 73.0938 22.25C73.0833 22.3542 73.0781 22.4375 73.0781 22.5V26.6562C73.0781 27.1458 73.0469 27.5885 72.9844 27.9844C72.9219 28.3698 72.8594 28.6823 72.7969 28.9219L71.75 29.0781C71.7292 28.9948 71.7135 28.901 71.7031 28.7969C71.7031 28.6927 71.6927 28.5833 71.6719 28.4688ZM71.6094 27.3906V24.875C71.2031 24.8646 70.776 24.8594 70.3281 24.8594C69.8802 24.849 69.4219 24.849 68.9531 24.8594C68.4948 24.8698 68.0365 24.8854 67.5781 24.9062C67.1198 24.9167 66.6823 24.9323 66.2656 24.9531V26.9062C66.2656 27.2083 66.25 27.4896 66.2188 27.75C66.625 27.7396 67.0521 27.7292 67.5 27.7188C67.9583 27.7083 68.4219 27.6979 68.8906 27.6875C69.3594 27.6667 69.8229 27.6458 70.2812 27.625C70.7396 27.6042 71.1823 27.5833 71.6094 27.5625V27.3906ZM85.5625 22.8281C85.2604 23.7344 84.8438 24.6198 84.3125 25.4844C83.7917 26.3385 83.1927 27.1406 82.5156 27.8906C81.849 28.6302 81.1198 29.3073 80.3281 29.9219C79.5365 30.526 78.7292 31.0365 77.9062 31.4531L77.4375 30.9844C78.1875 30.5469 78.8958 30.0312 79.5625 29.4375C80.2292 28.8333 80.8281 28.1979 81.3594 27.5312C81.901 26.8646 82.3646 26.1823 82.75 25.4844C83.1354 24.7865 83.4219 24.1146 83.6094 23.4688C83.4531 23.4688 83.25 23.474 83 23.4844C82.7604 23.4948 82.5052 23.5052 82.2344 23.5156C81.974 23.5156 81.7188 23.5208 81.4688 23.5312C81.2188 23.5417 81.0208 23.5469 80.875 23.5469C80.7604 23.5469 80.6094 23.5573 80.4219 23.5781C80.2344 23.599 80.0312 23.6198 79.8125 23.6406C79.5938 23.6615 79.375 23.6875 79.1562 23.7188C78.9375 23.7396 78.7448 23.7656 78.5781 23.7969L77.7812 22.5469C77.9167 22.5677 78.0885 22.5938 78.2969 22.625C78.5052 22.6458 78.724 22.6667 78.9531 22.6875C79.1823 22.7083 79.4062 22.724 79.625 22.7344C79.8542 22.7448 80.0573 22.75 80.2344 22.75C80.6094 22.75 81.0156 22.7448 81.4531 22.7344C81.901 22.7135 82.3438 22.6875 82.7812 22.6562C83.2188 22.625 83.6354 22.5833 84.0312 22.5312C84.4375 22.4792 84.7917 22.4219 85.0938 22.3594L85.5625 22.8281ZM86.0312 19.7031C86.2812 19.7344 86.5573 19.776 86.8594 19.8281C87.1615 19.8698 87.4635 19.9219 87.7656 19.9844C88.0677 20.0365 88.3542 20.0885 88.625 20.1406C88.9062 20.1927 89.151 20.2344 89.3594 20.2656C89.3385 20.3594 89.3177 20.474 89.2969 20.6094C89.276 20.7448 89.2552 20.8854 89.2344 21.0312C89.224 21.1667 89.2135 21.2917 89.2031 21.4062C89.1927 21.5208 89.1875 21.6042 89.1875 21.6562V30.3125C89.1875 30.6354 89.1771 31.0104 89.1562 31.4375C89.1458 31.8542 89.125 32.276 89.0938 32.7031C89.0729 33.1198 89.0469 33.5156 89.0156 33.8906C88.9844 34.276 88.9479 34.5833 88.9062 34.8125L87.8594 34.9531C87.8385 34.7865 87.8177 34.5625 87.7969 34.2812C87.7865 34 87.7708 33.6979 87.75 33.375C87.7396 33.0625 87.7292 32.7396 87.7188 32.4062C87.7188 32.0625 87.7188 31.7396 87.7188 31.4375V21.625C87.7188 21.3021 87.5625 21.0417 87.25 20.8438C86.9479 20.6354 86.4531 20.4479 85.7656 20.2812L86.0312 19.7031Z" fill="#383838"/>
<line x1="185.673" y1="20" x2="192.695" y2="27.022" stroke="#383838" stroke-linecap="round" stroke-linejoin="round"/>
<line x1="192.695" y1="27.8297" x2="185.673" y2="34.8516" stroke="#383838" stroke-linecap="round" stroke-linejoin="round"/>
<line x1="173" y1="27.3347" x2="192.943" y2="27.3347" stroke="#383838"/>
</svg>
