<svg width="219" height="55" viewBox="0 0 219 55" fill="none" xmlns="http://www.w3.org/2000/svg">
<rect x="0.5" y="0.5" width="218" height="54" fill="#F1F1F1" stroke="#383838"/>
<path d="M32.0625 25.5781C32.6354 26.1615 33.2656 26.7604 33.9531 27.375C34.6406 27.9896 35.3542 28.5677 36.0938 29.1094L34.9531 30.2344C34.4323 29.6198 33.8906 28.974 33.3281 28.2969C32.7656 27.6198 32.1927 26.9531 31.6094 26.2969C31.0677 27.099 30.4375 27.849 29.7188 28.5469C29 29.2448 28.1719 29.9219 27.2344 30.5781L26.7812 30.1562C27.3958 29.6771 27.9583 29.151 28.4688 28.5781C28.9792 27.9948 29.4323 27.401 29.8281 26.7969C30.2344 26.1823 30.5781 25.5625 30.8594 24.9375C31.151 24.3021 31.375 23.6875 31.5312 23.0938C31.5833 22.9271 31.599 22.8177 31.5781 22.7656C31.5677 22.7135 31.5365 22.6458 31.4844 22.5625C31.4115 22.4792 31.2865 22.3854 31.1094 22.2812C30.9323 22.1771 30.7292 22.0729 30.5 21.9688L30.7969 21.5C31.224 21.6042 31.6927 21.7344 32.2031 21.8906C32.7135 22.0365 33.1719 22.1771 33.5781 22.3125C33.3802 22.9062 33.1562 23.474 32.9062 24.0156C32.6667 24.5469 32.3854 25.0677 32.0625 25.5781ZM35.75 19.7031C36 19.7344 36.276 19.776 36.5781 19.8281C36.8802 19.8698 37.1823 19.9219 37.4844 19.9844C37.7865 20.0365 38.0729 20.0885 38.3438 20.1406C38.625 20.1927 38.8698 20.2344 39.0781 20.2656C39.0573 20.3594 39.0312 20.474 39 20.6094C38.9792 20.7448 38.9583 20.8854 38.9375 21.0312C38.9271 21.1667 38.9167 21.2917 38.9062 21.4062C38.8958 21.5208 38.8906 21.6042 38.8906 21.6562V30.3125C38.8906 30.6354 38.8802 31.0104 38.8594 31.4375C38.849 31.8542 38.8281 32.276 38.7969 32.7031C38.776 33.1198 38.75 33.5156 38.7188 33.8906C38.6875 34.276 38.651 34.5833 38.6094 34.8125L37.5625 34.9531C37.5417 34.7865 37.5208 34.5625 37.5 34.2812C37.4896 34 37.474 33.6979 37.4531 33.375C37.4427 33.0625 37.4323 32.7396 37.4219 32.4062C37.4219 32.0625 37.4219 31.7396 37.4219 31.4375V21.625C37.4219 21.3021 37.2656 21.0417 36.9531 20.8438C36.651 20.6354 36.1562 20.4479 35.4688 20.2812L35.75 19.7031ZM53.2656 26.1719C53.2656 26.3594 53.2552 26.5781 53.2344 26.8281C53.224 27.0677 53.2083 27.3125 53.1875 27.5625C53.1667 27.8125 53.1406 28.0521 53.1094 28.2812C53.0885 28.5 53.0625 28.6771 53.0312 28.8125L51.9219 28.9688C51.901 28.8542 51.8854 28.7135 51.875 28.5469C51.8646 28.3802 51.849 28.2083 51.8281 28.0312C51.8177 27.8542 51.8073 27.6771 51.7969 27.5C51.7969 27.3125 51.7969 27.1458 51.7969 27V21.625C51.7969 21.3021 51.6458 21.0417 51.3438 20.8438C51.0521 20.6354 50.5625 20.4479 49.875 20.2812L50.1094 19.7031C50.3698 19.7344 50.651 19.776 50.9531 19.8281C51.2656 19.8698 51.5729 19.9219 51.875 19.9844C52.1771 20.0365 52.4635 20.0885 52.7344 20.1406C53.0052 20.1927 53.2396 20.2344 53.4375 20.2656C53.4167 20.3594 53.3958 20.474 53.375 20.6094C53.3542 20.7448 53.3333 20.8854 53.3125 21.0312C53.3021 21.1667 53.2917 21.2917 53.2812 21.4062C53.2708 21.5208 53.2656 21.6042 53.2656 21.6562V24.6875C53.4844 24.6667 53.724 24.6458 53.9844 24.625C54.2448 24.5938 54.5104 24.5625 54.7812 24.5312C55.0521 24.5 55.3177 24.4688 55.5781 24.4375C55.849 24.3958 56.1042 24.3542 56.3438 24.3125L56.1719 25.5469C55.9844 25.5365 55.7708 25.5312 55.5312 25.5312C55.2917 25.5312 55.0365 25.5312 54.7656 25.5312C54.5052 25.5312 54.2448 25.5312 53.9844 25.5312C53.724 25.5312 53.4844 25.5312 53.2656 25.5312V26.1719ZM47.3125 25.1875C47.8125 25.5833 48.349 25.9688 48.9219 26.3438C49.5052 26.7083 50.1823 27.0833 50.9531 27.4688L49.8125 28.4688C49.2917 28.0208 48.7865 27.5729 48.2969 27.125C47.8073 26.6771 47.2917 26.2188 46.75 25.75C46 26.4688 45.1979 27.1042 44.3438 27.6562C43.4896 28.1979 42.6667 28.6458 41.875 29L41.4531 28.4844C42.1198 28.151 42.7604 27.7656 43.375 27.3281C43.9896 26.8906 44.5573 26.4167 45.0781 25.9062C45.6094 25.3854 46.0781 24.8385 46.4844 24.2656C46.8906 23.6927 47.2292 23.1042 47.5 22.5C47.3542 22.5 47.1823 22.5052 46.9844 22.5156C46.7865 22.526 46.5833 22.5365 46.375 22.5469C46.1667 22.5573 45.9635 22.5677 45.7656 22.5781C45.5677 22.5885 45.3958 22.5938 45.25 22.5938C45.1354 22.5938 44.9844 22.6042 44.7969 22.625C44.6094 22.6458 44.4062 22.6667 44.1875 22.6875C43.9792 22.7083 43.7656 22.7344 43.5469 22.7656C43.3281 22.7969 43.1302 22.8229 42.9531 22.8438L42.1406 21.5938C42.2656 21.6146 42.4323 21.6406 42.6406 21.6719C42.849 21.6927 43.0677 21.7135 43.2969 21.7344C43.5365 21.7552 43.7656 21.7708 43.9844 21.7812C44.2135 21.7917 44.4167 21.7969 44.5938 21.7969C44.9688 21.7969 45.3542 21.7917 45.75 21.7812C46.1562 21.7708 46.5521 21.75 46.9375 21.7188C47.3229 21.6875 47.6927 21.651 48.0469 21.6094C48.4115 21.5573 48.7396 21.5 49.0312 21.4375L49.5156 21.875C49.276 22.5 48.9688 23.0885 48.5938 23.6406C48.2188 24.1823 47.7917 24.6979 47.3125 25.1875ZM45.7969 29.5625C46.3385 29.5625 46.9531 29.5521 47.6406 29.5312C48.3385 29.5104 49.0312 29.4844 49.7188 29.4531C50.4167 29.4219 51.0781 29.3854 51.7031 29.3438C52.3281 29.3021 52.8385 29.2552 53.2344 29.2031C53.2031 29.4635 53.1823 29.6719 53.1719 29.8281C53.1615 29.9844 53.1562 30.151 53.1562 30.3281V32.4062C53.1562 32.7083 53.1406 33.0625 53.1094 33.4688C53.0781 33.875 53.0052 34.2552 52.8906 34.6094L51.7969 34.8125C51.776 34.6875 51.7552 34.5365 51.7344 34.3594C51.724 34.1823 51.7135 33.9948 51.7031 33.7969C51.6927 33.6094 51.6823 33.4219 51.6719 33.2344C51.6615 33.0573 51.6562 32.901 51.6562 32.7656V30.1719C51.25 30.1615 50.8125 30.1615 50.3438 30.1719C49.875 30.1823 49.3958 30.1979 48.9062 30.2188C48.4271 30.2396 47.9531 30.2656 47.4844 30.2969C47.0156 30.3281 46.5781 30.3594 46.1719 30.3906C45.8385 30.4115 45.5156 30.4427 45.2031 30.4844C44.901 30.526 44.5781 30.5729 44.2344 30.625L43.6562 29.3906C43.8021 29.4115 43.9635 29.4323 44.1406 29.4531C44.3281 29.474 44.5208 29.4948 44.7188 29.5156C44.9167 29.526 45.1094 29.5365 45.2969 29.5469C45.4844 29.5573 45.651 29.5625 45.7969 29.5625ZM68.5625 30.3125C68.5625 30.6354 68.5521 31.0104 68.5312 31.4375C68.5208 31.8542 68.5052 32.276 68.4844 32.7031C68.4635 33.1198 68.4375 33.5156 68.4062 33.8906C68.375 34.276 68.3438 34.5833 68.3125 34.8125L67.2344 34.9531C67.2135 34.7865 67.1927 34.5625 67.1719 34.2812C67.1615 34 67.1458 33.6979 67.125 33.375C67.1146 33.0625 67.1042 32.7396 67.0938 32.4062C67.0938 32.0625 67.0938 31.7396 67.0938 31.4375V21.625C67.0938 21.3021 66.9427 21.0417 66.6406 20.8438C66.349 20.6354 65.8594 20.4479 65.1719 20.2812L65.4219 19.7031C65.6823 19.7344 65.9635 19.776 66.2656 19.8281C66.5677 19.8698 66.8698 19.9219 67.1719 19.9844C67.474 20.0365 67.7604 20.0885 68.0312 20.1406C68.3125 20.1927 68.5521 20.2344 68.75 20.2656C68.7292 20.3594 68.7031 20.474 68.6719 20.6094C68.651 20.7448 68.6302 20.8854 68.6094 21.0312C68.599 21.1667 68.5885 21.2917 68.5781 21.4062C68.5677 21.5208 68.5625 21.6042 68.5625 21.6562V26.6875C69.0312 26.6458 69.5573 26.599 70.1406 26.5469C70.724 26.4844 71.25 26.4115 71.7188 26.3281L71.5469 27.5938C71.3698 27.5833 71.1562 27.5781 70.9062 27.5781C70.6562 27.5781 70.3958 27.5781 70.125 27.5781C69.8542 27.5781 69.5833 27.5781 69.3125 27.5781C69.0417 27.5781 68.7917 27.5781 68.5625 27.5781V30.3125ZM66.0625 24.3281C65.8229 24.3281 65.5312 24.3281 65.1875 24.3281C64.8438 24.3281 64.4688 24.3333 64.0625 24.3438C63.6667 24.3542 63.2552 24.3646 62.8281 24.375C62.401 24.3854 61.9896 24.3958 61.5938 24.4062C61.1979 24.4167 60.8333 24.4271 60.5 24.4375C60.1667 24.4479 59.8906 24.4583 59.6719 24.4688C59.5469 24.4792 59.3802 24.4948 59.1719 24.5156C58.974 24.526 58.7656 24.5417 58.5469 24.5625C58.3281 24.5833 58.1198 24.6094 57.9219 24.6406C57.724 24.6615 57.5625 24.6823 57.4375 24.7031L56.8438 23.4062C56.9792 23.4375 57.151 23.4688 57.3594 23.5C57.5677 23.5208 57.7812 23.5417 58 23.5625C58.2188 23.5833 58.4323 23.6042 58.6406 23.625C58.849 23.6354 59.026 23.6406 59.1719 23.6406C59.526 23.6406 59.9948 23.6354 60.5781 23.625C61.1719 23.6042 61.8021 23.5781 62.4688 23.5469C63.1458 23.5052 63.8177 23.4583 64.4844 23.4062C65.1615 23.3438 65.7552 23.2656 66.2656 23.1719L66.0625 24.3281ZM65.125 28.1406C65.125 28.5156 65.0365 28.875 64.8594 29.2188C64.6823 29.5521 64.4375 29.849 64.125 30.1094C63.8229 30.3594 63.4583 30.5573 63.0312 30.7031C62.6146 30.849 62.1667 30.9219 61.6875 30.9219C61.1979 30.9219 60.7396 30.849 60.3125 30.7031C59.8958 30.5469 59.5312 30.3438 59.2188 30.0938C58.9167 29.8438 58.6771 29.5521 58.5 29.2188C58.3229 28.875 58.2344 28.5156 58.2344 28.1406C58.2344 27.724 58.3229 27.3438 58.5 27C58.6771 26.6562 58.9167 26.3646 59.2188 26.125C59.5312 25.875 59.8958 25.6823 60.3125 25.5469C60.7396 25.4115 61.1979 25.3438 61.6875 25.3438C62.1979 25.3438 62.6615 25.4219 63.0781 25.5781C63.5052 25.724 63.8698 25.9271 64.1719 26.1875C64.474 26.4375 64.7083 26.7344 64.875 27.0781C65.0417 27.4115 65.125 27.7656 65.125 28.1406ZM59.7812 28.0625C59.7812 28.3333 59.8281 28.5885 59.9219 28.8281C60.026 29.0677 60.1667 29.2812 60.3438 29.4688C60.5208 29.6458 60.724 29.7917 60.9531 29.9062C61.1927 30.0104 61.4479 30.0625 61.7188 30.0625C61.9688 30.0625 62.2083 30.0104 62.4375 29.9062C62.6667 29.8021 62.8646 29.6615 63.0312 29.4844C63.2083 29.3073 63.349 29.099 63.4531 28.8594C63.5573 28.6094 63.6094 28.3438 63.6094 28.0625C63.6094 27.8021 63.5625 27.5573 63.4688 27.3281C63.375 27.0885 63.2448 26.8802 63.0781 26.7031C62.9115 26.526 62.7083 26.3854 62.4688 26.2812C62.2396 26.1667 61.9896 26.1094 61.7188 26.1094C61.1667 26.1094 60.7031 26.2917 60.3281 26.6562C59.9635 27.0104 59.7812 27.4792 59.7812 28.0625ZM63.75 22.25C63.5729 22.25 63.3802 22.25 63.1719 22.25C62.9635 22.25 62.7552 22.2552 62.5469 22.2656C62.3385 22.2656 62.1354 22.2708 61.9375 22.2812C61.75 22.2812 61.5885 22.2812 61.4531 22.2812C61.3802 22.2812 61.276 22.2865 61.1406 22.2969C61.0052 22.2969 60.8542 22.3073 60.6875 22.3281C60.5208 22.3385 60.3542 22.3542 60.1875 22.375C60.0208 22.3854 59.8698 22.401 59.7344 22.4219L59.0938 21.2188C59.2188 21.25 59.375 21.2812 59.5625 21.3125C59.75 21.3438 59.9427 21.375 60.1406 21.4062C60.349 21.4375 60.5469 21.4635 60.7344 21.4844C60.9323 21.4948 61.099 21.5 61.2344 21.5C61.3594 21.5 61.5312 21.4948 61.75 21.4844C61.9688 21.474 62.2031 21.4583 62.4531 21.4375C62.7135 21.4062 62.974 21.375 63.2344 21.3438C63.5052 21.3125 63.7604 21.2812 64 21.25L63.75 22.25ZM80.7656 22.8281C80.4635 23.7344 80.0469 24.6198 79.5156 25.4844C78.9948 26.3385 78.3958 27.1406 77.7188 27.8906C77.0521 28.6302 76.3229 29.3073 75.5312 29.9219C74.7396 30.526 73.9323 31.0365 73.1094 31.4531L72.6406 30.9844C73.3906 30.5469 74.099 30.0312 74.7656 29.4375C75.4323 28.8333 76.0312 28.1979 76.5625 27.5312C77.1042 26.8646 77.5677 26.1823 77.9531 25.4844C78.3385 24.7865 78.625 24.1146 78.8125 23.4688C78.6562 23.4688 78.4531 23.474 78.2031 23.4844C77.9635 23.4948 77.7083 23.5052 77.4375 23.5156C77.1771 23.5156 76.9219 23.5208 76.6719 23.5312C76.4219 23.5417 76.224 23.5469 76.0781 23.5469C75.9635 23.5469 75.8125 23.5573 75.625 23.5781C75.4375 23.599 75.2344 23.6198 75.0156 23.6406C74.7969 23.6615 74.5781 23.6875 74.3594 23.7188C74.1406 23.7396 73.9479 23.7656 73.7812 23.7969L72.9844 22.5469C73.1198 22.5677 73.2917 22.5938 73.5 22.625C73.7083 22.6458 73.9271 22.6667 74.1562 22.6875C74.3854 22.7083 74.6094 22.724 74.8281 22.7344C75.0573 22.7448 75.2604 22.75 75.4375 22.75C75.8125 22.75 76.2188 22.7448 76.6562 22.7344C77.1042 22.7135 77.5469 22.6875 77.9844 22.6562C78.4219 22.625 78.8385 22.5833 79.2344 22.5312C79.6406 22.4792 79.9948 22.4219 80.2969 22.3594L80.7656 22.8281ZM81.2344 19.7031C81.4844 19.7344 81.7604 19.776 82.0625 19.8281C82.3646 19.8698 82.6667 19.9219 82.9688 19.9844C83.2708 20.0365 83.5573 20.0885 83.8281 20.1406C84.1094 20.1927 84.3542 20.2344 84.5625 20.2656C84.5417 20.3594 84.5208 20.474 84.5 20.6094C84.4792 20.7448 84.4583 20.8854 84.4375 21.0312C84.4271 21.1667 84.4167 21.2917 84.4062 21.4062C84.3958 21.5208 84.3906 21.6042 84.3906 21.6562V30.3125C84.3906 30.6354 84.3802 31.0104 84.3594 31.4375C84.349 31.8542 84.3281 32.276 84.2969 32.7031C84.276 33.1198 84.25 33.5156 84.2188 33.8906C84.1875 34.276 84.151 34.5833 84.1094 34.8125L83.0625 34.9531C83.0417 34.7865 83.0208 34.5625 83 34.2812C82.9896 34 82.974 33.6979 82.9531 33.375C82.9427 33.0625 82.9323 32.7396 82.9219 32.4062C82.9219 32.0625 82.9219 31.7396 82.9219 31.4375V21.625C82.9219 21.3021 82.7656 21.0417 82.4531 20.8438C82.151 20.6354 81.6562 20.4479 80.9688 20.2812L81.2344 19.7031Z" fill="#383838"/>
<line x1="185.673" y1="20" x2="192.695" y2="27.022" stroke="#383838" stroke-linecap="round" stroke-linejoin="round"/>
<line x1="192.695" y1="27.8296" x2="185.673" y2="34.8516" stroke="#383838" stroke-linecap="round" stroke-linejoin="round"/>
<line x1="173" y1="27.3348" x2="192.943" y2="27.3348" stroke="#383838"/>
</svg>
